<svg width="23" height="23" viewBox="0 0 23 23" fill="none" xmlns="http://www.w3.org/2000/svg">
<path d="M7.1585 21.7584C7.11324 21.7195 7.07598 21.6714 7.04937 21.6162L5.30718 17.948L1.41713 16.7825C1.27769 16.7403 1.16854 16.6304 1.12677 16.4906C1.08556 16.35 1.11819 16.1989 1.21359 16.0877L2.33834 14.7771C2.43774 14.6613 2.59095 14.6067 2.74095 14.6326L5.43804 15.106C6.41452 13.5641 7.78358 11.7467 9.31964 9.95684C9.74177 9.46496 10.1514 8.98087 10.5473 8.51152C12.2491 6.4976 13.7194 4.75877 14.9863 3.86851C16.0083 3.15171 17.2401 3.09815 17.7074 3.49915C18.1747 3.90016 18.3092 5.12522 17.7557 6.24293C17.0679 7.6315 15.5705 9.34934 13.8388 11.3376C13.4349 11.8001 13.0192 12.2778 12.5971 12.7696C11.061 14.5595 9.47296 16.189 8.09652 17.3888L8.97422 19.9822C9.02189 20.126 8.99116 20.2857 8.89177 20.4015L7.76702 21.7121C7.67162 21.8232 7.52717 21.8784 7.382 21.859C7.29838 21.8473 7.22106 21.8122 7.15849 21.7585L7.1585 21.7584ZM5.89654 17.261C5.9418 17.2999 5.97907 17.348 6.00567 17.4032L7.54439 20.6448L8.07621 20.0251L7.18405 17.3893C7.12707 17.2213 7.17827 17.0364 7.31257 16.9217C8.70687 15.7361 10.35 14.0612 11.9414 12.207C12.3647 11.7137 12.7821 11.234 13.1871 10.7702C14.8806 8.82662 16.3431 7.148 16.9819 5.85958C17.3981 5.02044 17.2432 4.27028 17.1374 4.14711C17.0155 4.07492 16.25 4.0363 15.4831 4.57563C14.3071 5.40184 12.8706 7.10129 11.2075 9.07005C10.8099 9.54016 10.3991 10.0256 9.9752 10.5195C8.3843 12.3732 6.97813 14.2514 6.01725 15.8087C5.92421 15.9589 5.7492 16.0376 5.57522 16.0073L2.83399 15.526L2.30217 16.1457L5.73967 17.1748C5.79827 17.1927 5.85152 17.2223 5.89678 17.2611L5.89654 17.261Z" fill="#01C0EA"/>
<path d="M1.92742 7.96247C1.85553 7.90078 1.80554 7.81627 1.78534 7.72263C1.75849 7.59095 1.79349 7.45454 1.88088 7.35271L3.56829 5.38652C3.65341 5.28735 3.77798 5.23244 3.90888 5.23613L13.373 5.50794C13.5425 5.51242 13.6936 5.61659 13.759 5.77332C13.8245 5.93005 13.7915 6.10984 13.6754 6.23441C12.9197 7.04223 12.0861 8.0283 11.2036 9.07286C10.8071 9.54289 10.3974 10.027 9.97474 10.5195C9.7691 10.7591 9.56773 10.9978 9.37065 11.2355C9.24364 11.3889 9.02822 11.4352 8.84866 11.3481L2.01885 8.02262C1.98585 8.00586 1.95447 7.98586 1.92718 7.96244L1.92742 7.96247ZM4.08913 6.10625L2.9004 7.49138L8.92317 10.4236C9.05313 10.2682 9.18556 10.1125 9.31924 9.95675C9.7408 9.46553 10.1493 8.98278 10.5441 8.51475C11.1944 7.74482 11.818 7.00742 12.4074 6.34357L4.08913 6.10625Z" fill="#01C0EA"/>
<path d="M15.6893 19.7732C15.6613 19.7492 15.6362 19.7219 15.6152 19.6912L11.292 13.445C11.1786 13.2807 11.1917 13.0608 11.3241 12.9119C11.5292 12.6823 11.7351 12.4464 11.9408 12.2068C12.3635 11.7142 12.7798 11.2359 13.1842 10.7727C14.0828 9.74188 14.931 8.76836 15.6148 7.89883C15.7197 7.7658 15.8937 7.70588 16.0579 7.74621C16.2233 7.78646 16.3486 7.92059 16.3787 8.08748L18.0833 17.4008C18.1056 17.5297 18.0709 17.6618 17.9858 17.7609L16.2984 19.7271C16.2116 19.8283 16.0815 19.8843 15.9485 19.8776C15.8522 19.8713 15.7611 19.8347 15.6892 19.773L15.6893 19.7732ZM12.1958 13.2311L16.0079 18.7393L17.1966 17.3541L15.6986 9.16822C15.1325 9.85209 14.4976 10.5798 13.8353 11.3394C13.4326 11.8018 13.0174 12.2788 12.5965 12.7694C12.4628 12.9252 12.329 13.0797 12.1956 13.231L12.1958 13.2311Z" fill="#01C0EA"/>
<path d="M16.7961 14.5074C16.6151 14.352 16.5943 14.0799 16.7497 13.8988L17.9367 12.5157C18.0921 12.3347 18.3642 12.3139 18.5453 12.4693C18.7263 12.6247 18.7471 12.8968 18.5917 13.0778L17.4047 14.4609C17.2493 14.642 16.9772 14.6628 16.7961 14.5074Z" fill="#01C0EA"/>
<path d="M6.96508 6.07012C6.78404 5.91475 6.76327 5.64264 6.91865 5.46159L8.10567 4.07846C8.26104 3.89741 8.53315 3.87665 8.7142 4.03203C8.89525 4.1874 8.91601 4.45951 8.76063 4.64056L7.57361 6.02369C7.4189 6.20531 7.1468 6.22607 6.96508 6.07012Z" fill="#01C0EA"/>
</svg>
