<svg width="15" height="17" viewBox="0 0 15 17" fill="none" xmlns="http://www.w3.org/2000/svg">
<path fill-rule="evenodd" clip-rule="evenodd" d="M14.6998 17C14.8657 17 15 16.8664 15 16.7014C15 16.5364 14.8657 16.4028 14.6998 16.4028H0.299542C0.134305 16.4028 0 16.5364 0 16.7014C0 16.8664 0.134298 17 0.299542 17H14.6998Z" fill="#01C0EA"/>
<path fill-rule="evenodd" clip-rule="evenodd" d="M2.69982 15.21C2.86506 15.21 2.99936 15.0764 2.99936 14.9114C2.99936 14.7463 2.86506 14.6128 2.69982 14.6128H2.09935C1.93411 14.6128 1.7998 14.7463 1.7998 14.9114C1.7998 15.0764 1.9341 15.21 2.09935 15.21H2.69982Z" fill="#01C0EA"/>
<path fill-rule="evenodd" clip-rule="evenodd" d="M2.69982 13.4199C2.86506 13.4199 2.99936 13.2864 2.99936 13.1213C2.99936 12.9563 2.86506 12.8228 2.69982 12.8228H2.09935C1.93411 12.8228 1.7998 12.9563 1.7998 13.1213C1.7998 13.2864 1.9341 13.4199 2.09935 13.4199H2.69982Z" fill="#01C0EA"/>
<path fill-rule="evenodd" clip-rule="evenodd" d="M2.69982 11.6299C2.86506 11.6299 2.99936 11.4963 2.99936 11.3313C2.99936 11.1663 2.86506 11.0327 2.69982 11.0327H2.09935C1.93411 11.0327 1.7998 11.1663 1.7998 11.3313C1.7998 11.4963 1.9341 11.6299 2.09935 11.6299H2.69982Z" fill="#01C0EA"/>
<path fill-rule="evenodd" clip-rule="evenodd" d="M2.69982 9.8396C2.86506 9.8396 2.99936 9.70604 2.99936 9.54102C2.99936 9.37599 2.86506 9.24243 2.69982 9.24243H2.09935C1.93411 9.24243 1.7998 9.37599 1.7998 9.54102C1.7998 9.70604 1.9341 9.8396 2.09935 9.8396H2.69982Z" fill="#01C0EA"/>
<path fill-rule="evenodd" clip-rule="evenodd" d="M2.69982 8.04956C2.86506 8.04956 2.99936 7.91601 2.99936 7.75098C2.99936 7.58595 2.86506 7.45239 2.69982 7.45239H2.09935C1.93411 7.45239 1.7998 7.58595 1.7998 7.75098C1.7998 7.91601 1.9341 8.04956 2.09935 8.04956H2.69982Z" fill="#01C0EA"/>
<path fill-rule="evenodd" clip-rule="evenodd" d="M2.69982 6.25952C2.86506 6.25952 2.99936 6.12597 2.99936 5.96094C2.99936 5.79591 2.86506 5.66235 2.69982 5.66235H2.09935C1.93411 5.66235 1.7998 5.79591 1.7998 5.96094C1.7998 6.12597 1.9341 6.25952 2.09935 6.25952H2.69982Z" fill="#01C0EA"/>
<path fill-rule="evenodd" clip-rule="evenodd" d="M5.0999 6.25952C5.26584 6.25952 5.40014 6.12597 5.40014 5.96094C5.40014 5.79591 5.26584 5.66235 5.0999 5.66235H3.89964C3.7344 5.66235 3.6001 5.79591 3.6001 5.96094C3.6001 6.12597 3.7344 6.25952 3.89964 6.25952H5.0999Z" fill="#01C0EA"/>
<path fill-rule="evenodd" clip-rule="evenodd" d="M5.0999 8.04956C5.26584 8.04956 5.40014 7.91601 5.40014 7.75098C5.40014 7.58595 5.26584 7.45239 5.0999 7.45239H3.89964C3.7344 7.45239 3.6001 7.58595 3.6001 7.75098C3.6001 7.91601 3.7344 8.04956 3.89964 8.04956H5.0999Z" fill="#01C0EA"/>
<path fill-rule="evenodd" clip-rule="evenodd" d="M5.0999 9.8396C5.26584 9.8396 5.40014 9.70604 5.40014 9.54102C5.40014 9.37599 5.26584 9.24243 5.0999 9.24243H3.89964C3.7344 9.24243 3.6001 9.37599 3.6001 9.54102C3.6001 9.70604 3.7344 9.8396 3.89964 9.8396H5.0999Z" fill="#01C0EA"/>
<path fill-rule="evenodd" clip-rule="evenodd" d="M5.0999 11.6299C5.26584 11.6299 5.40014 11.4963 5.40014 11.3313C5.40014 11.1663 5.26584 11.0327 5.0999 11.0327H3.89964C3.7344 11.0327 3.6001 11.1663 3.6001 11.3313C3.6001 11.4963 3.7344 11.6299 3.89964 11.6299H5.0999Z" fill="#01C0EA"/>
<path fill-rule="evenodd" clip-rule="evenodd" d="M5.0999 13.4199C5.26584 13.4199 5.40014 13.2864 5.40014 13.1213C5.40014 12.9563 5.26584 12.8228 5.0999 12.8228H3.89964C3.7344 12.8228 3.6001 12.9563 3.6001 13.1213C3.6001 13.2864 3.7344 13.4199 3.89964 13.4199H5.0999Z" fill="#01C0EA"/>
<path fill-rule="evenodd" clip-rule="evenodd" d="M5.0999 15.21C5.26584 15.21 5.40014 15.0764 5.40014 14.9114C5.40014 14.7463 5.26584 14.6128 5.0999 14.6128H3.89964C3.7344 14.6128 3.6001 14.7463 3.6001 14.9114C3.6001 15.0764 3.7344 15.21 3.89964 15.21H5.0999Z" fill="#01C0EA"/>
<path fill-rule="evenodd" clip-rule="evenodd" d="M12.8997 11.6299C13.0656 11.6299 13.1999 11.4963 13.1999 11.3313C13.1999 11.1663 13.0656 11.0327 12.8997 11.0327H11.7001C11.5342 11.0327 11.3999 11.1663 11.3999 11.3313C11.3999 11.4963 11.5342 11.6299 11.7001 11.6299H12.8997Z" fill="#01C0EA"/>
<path fill-rule="evenodd" clip-rule="evenodd" d="M12.8997 13.4199C13.0656 13.4199 13.1999 13.2864 13.1999 13.1213C13.1999 12.9563 13.0656 12.8228 12.8997 12.8228H11.7001C11.5342 12.8228 11.3999 12.9563 11.3999 13.1213C11.3999 13.2864 11.5342 13.4199 11.7001 13.4199H12.8997Z" fill="#01C0EA"/>
<path fill-rule="evenodd" clip-rule="evenodd" d="M12.8997 15.21C13.0656 15.21 13.1999 15.0764 13.1999 14.9114C13.1999 14.7463 13.0656 14.6128 12.8997 14.6128H11.7001C11.5342 14.6128 11.3999 14.7463 11.3999 14.9114C11.3999 15.0764 11.5342 15.21 11.7001 15.21H12.8997Z" fill="#01C0EA"/>
<path fill-rule="evenodd" clip-rule="evenodd" d="M10.4998 9.8396C10.6657 9.8396 10.8 9.70604 10.8 9.54102C10.8 9.37599 10.6657 9.24243 10.4998 9.24243H9.29954C9.13431 9.24243 9 9.37599 9 9.54102C9 9.70604 9.1343 9.8396 9.29954 9.8396H10.4998Z" fill="#01C0EA"/>
<path fill-rule="evenodd" clip-rule="evenodd" d="M10.4998 11.6299C10.6657 11.6299 10.8 11.4963 10.8 11.3313C10.8 11.1663 10.6657 11.0327 10.4998 11.0327H9.29954C9.13431 11.0327 9 11.1663 9 11.3313C9 11.4963 9.1343 11.6299 9.29954 11.6299H10.4998Z" fill="#01C0EA"/>
<path fill-rule="evenodd" clip-rule="evenodd" d="M10.4998 13.4199C10.6657 13.4199 10.8 13.2864 10.8 13.1213C10.8 12.9563 10.6657 12.8228 10.4998 12.8228H9.29954C9.13431 12.8228 9 12.9563 9 13.1213C9 13.2864 9.1343 13.4199 9.29954 13.4199H10.4998Z" fill="#01C0EA"/>
<path fill-rule="evenodd" clip-rule="evenodd" d="M10.4998 15.21C10.6657 15.21 10.8 15.0764 10.8 14.9114C10.8 14.7463 10.6657 14.6128 10.4998 14.6128H9.29954C9.13431 14.6128 9 14.7463 9 14.9114C9 15.0764 9.1343 15.21 9.29954 15.21H10.4998Z" fill="#01C0EA"/>
<path fill-rule="evenodd" clip-rule="evenodd" d="M2.69982 4.46948C2.86506 4.46948 2.99936 4.33593 2.99936 4.1709C2.99936 4.00587 2.86506 3.87231 2.69982 3.87231H2.09935C1.93411 3.87231 1.7998 4.00587 1.7998 4.1709C1.7998 4.33593 1.9341 4.46948 2.09935 4.46948H2.69982Z" fill="#01C0EA"/>
<path fill-rule="evenodd" clip-rule="evenodd" d="M6.90001 15.21C7.06595 15.21 7.20026 15.0764 7.20026 14.9114C7.20026 14.7463 7.06596 14.6128 6.90001 14.6128H6.30024C6.1343 14.6128 6 14.7463 6 14.9114C6 15.0764 6.1343 15.21 6.30024 15.21H6.90001Z" fill="#01C0EA"/>
<path fill-rule="evenodd" clip-rule="evenodd" d="M6.90001 13.4199C7.06595 13.4199 7.20026 13.2864 7.20026 13.1213C7.20026 12.9563 7.06596 12.8228 6.90001 12.8228H6.30024C6.1343 12.8228 6 12.9563 6 13.1213C6 13.2864 6.1343 13.4199 6.30024 13.4199H6.90001Z" fill="#01C0EA"/>
<path fill-rule="evenodd" clip-rule="evenodd" d="M6.90001 11.6299C7.06595 11.6299 7.20026 11.4963 7.20026 11.3313C7.20026 11.1663 7.06596 11.0327 6.90001 11.0327H6.30024C6.1343 11.0327 6 11.1663 6 11.3313C6 11.4963 6.1343 11.6299 6.30024 11.6299H6.90001Z" fill="#01C0EA"/>
<path fill-rule="evenodd" clip-rule="evenodd" d="M6.90001 9.8396C7.06595 9.8396 7.20026 9.70604 7.20026 9.54102C7.20026 9.37599 7.06596 9.24243 6.90001 9.24243H6.30024C6.1343 9.24243 6 9.37599 6 9.54102C6 9.70604 6.1343 9.8396 6.30024 9.8396H6.90001Z" fill="#01C0EA"/>
<path fill-rule="evenodd" clip-rule="evenodd" d="M6.90001 8.04956C7.06595 8.04956 7.20026 7.91601 7.20026 7.75098C7.20026 7.58595 7.06596 7.45239 6.90001 7.45239H6.30024C6.1343 7.45239 6 7.58595 6 7.75098C6 7.91601 6.1343 8.04956 6.30024 8.04956H6.90001Z" fill="#01C0EA"/>
<path fill-rule="evenodd" clip-rule="evenodd" d="M6.90001 6.25952C7.06595 6.25952 7.20026 6.12597 7.20026 5.96094C7.20026 5.79591 7.06596 5.66235 6.90001 5.66235H6.30024C6.1343 5.66235 6 5.79591 6 5.96094C6 6.12597 6.1343 6.25952 6.30024 6.25952H6.90001Z" fill="#01C0EA"/>
<path fill-rule="evenodd" clip-rule="evenodd" d="M8.39949 4.48488C8.39949 4.3786 8.34324 4.28071 8.25113 4.22686L1.05102 0.0411317C0.851325 -0.0749438 0.599609 0.0684017 0.599609 0.299153V17H1.19938V0.813083L7.79972 4.65064V17H8.39948L8.39949 4.48488Z" fill="#01C0EA"/>
<path fill-rule="evenodd" clip-rule="evenodd" d="M14.2511 9.59689C14.3432 9.65074 14.4001 9.74863 14.4001 9.85492V16.9998H13.7997V10.0207L7.7998 6.53218V5.84692L14.2511 9.59689Z" fill="#01C0EA"/>
</svg>
