<svg width="17" height="15" viewBox="0 0 17 15" fill="none" xmlns="http://www.w3.org/2000/svg">
<path d="M3.48941 7.33252C4.27748 7.33252 4.88305 7.99935 4.88305 8.78677C4.88305 9.57484 4.27684 10.1804 3.48941 10.1804C2.70134 10.1804 2.03516 9.5742 2.03516 8.78677C2.03516 7.99871 2.70198 7.33252 3.48941 7.33252ZM3.48941 8.05997C3.06508 8.05997 2.76196 8.36306 2.76196 8.78741C2.76196 9.15113 3.06506 9.45424 3.48941 9.45424C3.85313 9.45424 4.15624 9.15115 4.15624 8.78741C4.15624 8.36308 3.85314 8.05997 3.48941 8.05997Z" fill="#01C0EA"/>
<path d="M13.4884 8.05997C13.0641 8.05997 12.761 8.36306 12.761 8.78741C12.761 9.15113 13.0641 9.45424 13.4884 9.45424C13.8522 9.45424 14.1553 9.15115 14.1553 8.78741C14.1553 8.36308 13.8522 8.05997 13.4884 8.05997ZM13.4884 7.33252C14.2765 7.33252 14.8821 7.99935 14.8821 8.78677C14.8821 9.57484 14.2759 10.1804 13.4884 10.1804C12.7004 10.1804 12.0342 9.5742 12.0342 8.78677C12.0342 7.99871 12.701 7.33252 13.4884 7.33252Z" fill="#01C0EA"/>
<path d="M4.94441 0H11.9739C13.0645 0 13.8525 0.727447 14.1557 1.7573L15.1856 5.3327C15.9737 5.57518 16.458 6.30263 16.458 7.15064V10.0599C16.458 11.0898 15.6699 11.9384 14.6401 11.9991V14.1202C14.6401 14.5445 14.2764 14.9082 13.852 14.9082H13.0639C12.6396 14.9082 12.2759 14.5445 12.2759 14.1202V12.0597H4.64015V14.1202C4.64015 14.5445 4.27643 14.9082 3.85208 14.9082H3.06401C2.63968 14.9082 2.27595 14.5445 2.27595 14.1202V11.9991C1.24603 11.9384 0.458008 11.0898 0.458008 10.0599V7.15064C0.458008 6.30196 0.942962 5.57513 1.7304 5.3327L2.82094 1.7573C3.12404 0.727383 3.85086 0 4.94206 0H4.94441ZM14.3981 5.21143L13.4281 1.93921C13.2463 1.27238 12.7613 0.727431 11.9739 0.727431H4.94436C4.1563 0.727431 3.73258 1.27302 3.49011 1.93921L2.52018 5.21143H14.3981ZM14.5193 5.93888H2.39898C1.73215 5.93888 1.1872 6.48447 1.1872 7.15066V10.0599C1.1872 10.7267 1.73279 11.2716 2.39898 11.2716H14.5193C15.1861 11.2716 15.7311 10.7261 15.7311 10.0599V7.15066C15.7311 6.48383 15.1855 5.93888 14.5193 5.93888Z" fill="#01C0EA"/>
<path d="M6.21716 8.42358C6.0353 8.42358 5.91406 8.30234 5.91406 8.12048C5.91406 7.93862 6.0353 7.81738 6.21716 7.81738H10.7018C10.8836 7.81738 11.0049 7.93862 11.0049 8.12048C11.0049 8.30234 10.8836 8.42358 10.7018 8.42358H6.21716Z" fill="#01C0EA"/>
<path d="M6.21716 9.75683C6.0353 9.75683 5.91406 9.57497 5.91406 9.45373C5.91406 9.27187 6.0353 9.15063 6.21716 9.15063H10.7018C10.8836 9.15063 11.0049 9.27188 11.0049 9.45373C11.0049 9.57497 10.8836 9.75683 10.7018 9.75683H6.21716Z" fill="#01C0EA"/>
</svg>
