<svg width="40" height="40" viewBox="0 0 40 40" fill="none" xmlns="http://www.w3.org/2000/svg">
<path d="M20 40C31.0494 40 40 31.0494 40 20C40 8.95064 31.0494 0 20 0C8.95064 0 0 8.95795 0 20C0 31.042 8.95795 40 20 40ZM13.404 19.0713L22.106 10.3693C22.362 10.1133 22.6984 9.98172 23.0347 9.98172C23.3711 9.98172 23.7075 10.1133 23.9634 10.3693C24.4753 10.8812 24.4753 11.7221 23.9634 12.234L16.1974 20L23.9634 27.766C24.4753 28.2779 24.4753 29.1188 23.9634 29.6307C23.4516 30.1426 22.6106 30.1426 22.0987 29.6307L13.3967 20.9287C13.1481 20.6801 13.0091 20.3437 13.0091 20C13.0091 19.6563 13.1554 19.3126 13.404 19.0713Z" fill="white" fill-opacity="0.8"/>
</svg>
