<svg width="40" height="40" viewBox="0 0 40 40" fill="none" xmlns="http://www.w3.org/2000/svg">
<path d="M20 0C8.95064 0 0 8.95064 0 20C0 31.0494 8.95064 40 20 40C31.0494 40 40 31.042 40 20C40 8.95795 31.042 0 20 0ZM26.596 20.9287L17.894 29.6307C17.638 29.8867 17.3016 30.0183 16.9653 30.0183C16.6289 30.0183 16.2925 29.8867 16.0366 29.6307C15.5247 29.1188 15.5247 28.2779 16.0366 27.766L23.8026 20L16.0366 12.234C15.5247 11.7221 15.5247 10.8812 16.0366 10.3693C16.5484 9.8574 17.3894 9.8574 17.9013 10.3693L26.6033 19.0713C26.8519 19.3199 26.9909 19.6563 26.9909 20C26.9909 20.3437 26.8446 20.6874 26.596 20.9287Z" fill="white" fill-opacity="0.75"/>
</svg>
