<svg width="20" height="16" viewBox="0 0 20 16" fill="none" xmlns="http://www.w3.org/2000/svg">
<path d="M10.0107 0C4.48921 0 0 3.17524 0 7.07679C0 8.86178 0.926968 10.5421 2.59245 11.8497C2.31831 12.4723 1.87623 13.385 1.32794 14.1113C1.03323 14.5263 1.01182 15.0662 1.30654 15.4812C1.5387 15.8136 1.89681 16 2.2969 16C2.40228 16 2.50765 15.9789 2.61303 15.9587C4.46781 15.4812 6.15386 14.5887 7.31299 13.9046C8.17741 14.0707 9.08296 14.1534 9.98932 14.1534C15.5108 14.1534 20 10.9782 20 7.07662C20 3.17507 15.5322 0 10.0107 0ZM10.0107 13.1158C9.10428 13.1158 8.19788 13.0331 7.33435 12.8458C7.20757 12.8248 7.06021 12.8458 6.93426 12.9083C5.83852 13.5722 4.173 14.4647 2.33968 14.9421C2.27629 14.9632 2.2343 14.9421 2.19231 14.9008C2.15033 14.8594 2.15033 14.797 2.19231 14.7557C2.92994 13.7594 3.47823 12.5354 3.73097 11.8716C3.81494 11.643 3.75237 11.3941 3.54162 11.249C1.96016 10.1271 1.0752 8.65421 1.0752 7.09782C1.0752 3.77753 5.07947 1.05862 10.0106 1.05862C14.9418 1.05862 18.9461 3.75636 18.9461 7.09782C18.9461 10.4385 14.9418 13.1158 10.0107 13.1158Z" fill="#01C0EA"/>
<path d="M10.0107 13.1158C9.10428 13.1158 8.19788 13.0331 7.33435 12.8458C7.20757 12.8248 7.06021 12.8458 6.93426 12.9083C5.83852 13.5722 4.173 14.4647 2.33968 14.9421C2.27629 14.9632 2.2343 14.9421 2.19231 14.9008C2.15033 14.8594 2.15033 14.797 2.19231 14.7557C2.92994 13.7594 3.47823 12.5354 3.73097 11.8716C3.81494 11.643 3.75237 11.3941 3.54162 11.249C1.96016 10.1271 1.0752 8.65421 1.0752 7.09782C1.0752 3.77753 5.07947 1.05862 10.0106 1.05862C14.9418 1.05862 18.9461 3.75636 18.9461 7.09782C18.9461 10.4385 14.9418 13.1158 10.0107 13.1158Z" fill="#01C0EA"/>
</svg>
