<svg width="17" height="17" viewBox="0 0 17 17" fill="none" xmlns="http://www.w3.org/2000/svg">
<path d="M8.5 0C6.24546 0 4.0834 0.895815 2.48965 2.48965C0.8959 4.08349 0 6.24563 0 8.5C0 10.7544 0.895815 12.9166 2.48965 14.5104C4.08349 16.1041 6.24563 17 8.5 17C10.7544 17 12.9166 16.1042 14.5104 14.5104C16.1041 12.9165 17 10.7544 17 8.5C17 6.24563 16.1042 4.0834 14.5104 2.48965C12.9165 0.8959 10.7544 0 8.5 0V0ZM8.5 15.9375C6.52766 15.9375 4.6359 15.1539 3.24054 13.7595C1.84601 12.3643 1.0625 10.4723 1.0625 8.5C1.0625 6.52766 1.8461 4.6359 3.24054 3.24054C4.63573 1.84601 6.52766 1.0625 8.5 1.0625C10.4723 1.0625 12.3641 1.8461 13.7595 3.24054C15.154 4.63573 15.9375 6.52766 15.9375 8.5C15.9375 10.4723 15.1539 12.3641 13.7595 13.7595C12.3643 15.154 10.4723 15.9375 8.5 15.9375Z" fill="#01C0EA"/>
<path d="M9.03125 8.23974V4.97778C9.03125 4.68426 8.79352 4.44653 8.5 4.44653C8.20648 4.44653 7.96875 4.68426 7.96875 4.97778V8.46278C7.97074 8.61353 8.03582 8.7563 8.14938 8.85591C8.1766 8.90173 8.21047 8.9429 8.25031 8.9781L12.4048 12.3409C12.6332 12.5082 12.9526 12.467 13.1313 12.2479C13.3099 12.0281 13.2846 11.7067 13.0741 11.5174L9.03125 8.23974Z" fill="#01C0EA"/>
</svg>
