<svg width="19" height="19" viewBox="0 0 19 19" fill="none" xmlns="http://www.w3.org/2000/svg">
<path d="M11.6011 9.49746L18.565 2.53543C19.145 1.95559 19.145 1.01471 18.565 0.434874C17.985 -0.144958 17.0439 -0.144958 16.4639 0.434874L9.5 7.39691L2.53611 0.434874C1.95612 -0.144958 1.01498 -0.144958 0.434991 0.434874C-0.144997 1.01471 -0.144997 1.95559 0.434991 2.53543L7.39889 9.49746L0.434991 16.4595C-0.144997 17.0393 -0.144997 17.9802 0.434991 18.56C0.714819 18.8398 1.0955 19 1.47538 19C1.85526 19 2.23595 18.8601 2.51577 18.56L9.49988 11.598L16.4638 18.56C16.7436 18.8398 17.1243 19 17.5042 19C17.884 19 18.2647 18.8601 18.5446 18.56C19.1245 17.9802 19.1245 17.0393 18.5446 16.4595L11.6011 9.49746Z" fill="#01C0EA"/>
</svg>
