<svg width="25" height="17" viewBox="0 0 25 17" fill="none" xmlns="http://www.w3.org/2000/svg">
<path fill-rule="evenodd" clip-rule="evenodd" d="M22.0625 0C23.3468 0 24.48 0.982104 24.48 2.2664V14.7336C24.48 16.0934 23.3468 17 22.0625 17H2.4175C1.20875 17 0 16.0934 0 14.7336V2.2664C0 0.982104 1.20875 0 2.4175 0H22.0625ZM23.3468 13.9782V4.00411L16.7732 7.93356L23.3468 13.9782ZM1.13227 2.3421L11.4841 8.76444C11.9374 9.06664 12.6173 9.06664 13.0706 8.76444L23.3469 2.79524V2.2664C23.3469 1.58649 22.7426 1.05765 22.0627 1.05765H2.41762C1.81323 1.05765 1.13332 1.58649 1.13332 2.2664V2.34195L1.13227 2.3421ZM1.13227 3.6264V13.9782L7.85696 7.78229L1.13227 3.6264ZM23.1958 15.3381L15.7913 8.46237L13.6759 9.67112C12.8449 10.2 11.7117 10.2 10.8051 9.67112L8.84085 8.38682L1.28528 15.3382C1.58747 15.7159 1.96519 15.9426 2.41848 15.9426H22.0635C22.5168 15.9426 22.9701 15.716 23.1967 15.3382L23.1958 15.3381Z" fill="#01C0EA"/>
</svg>
