<svg width="19" height="19" viewBox="0 0 19 19" fill="none" xmlns="http://www.w3.org/2000/svg">
<path d="M9.5 14.25C6.88009 14.25 4.75 12.1199 4.75 9.5C4.75 6.88009 6.88009 4.75 9.5 4.75C12.1199 4.75 14.25 6.88009 14.25 9.5C14.25 12.1199 12.1199 14.25 9.5 14.25ZM9.5 7.125C8.19005 7.125 7.125 8.19005 7.125 9.5C7.125 10.81 8.19005 11.875 9.5 11.875C10.81 11.875 11.875 10.81 11.875 9.5C11.875 8.19005 10.81 7.125 9.5 7.125ZM9.5 19C4.2617 19 0 14.7383 0 9.5C0 4.2617 4.2617 0 9.5 0C14.7383 0 19 4.2617 19 9.5C19 10.145 18.9347 10.7899 18.8063 11.4141C18.3981 13.3616 16.5041 14.6025 14.5847 14.1987C13.654 14.005 12.8532 13.4602 12.3322 12.6631C11.8112 11.8675 11.6301 10.9153 11.8253 9.98374C11.9574 9.34101 12.5875 8.92909 13.2303 9.06342C13.873 9.19775 14.2849 9.82712 14.1491 10.4684C14.0853 10.7793 14.1446 11.0955 14.3191 11.3612C14.4935 11.6269 14.7599 11.8088 15.0694 11.8741C15.7084 12.0002 16.34 11.595 16.4751 10.9537C16.576 10.4669 16.625 9.98444 16.625 9.49907C16.625 5.56987 13.4292 2.37407 9.50002 2.37407C5.57082 2.37407 2.37502 5.56987 2.37502 9.49907C2.37502 13.4283 5.57082 16.6241 9.50002 16.6241C10.3409 16.6241 11.1662 16.4793 11.9506 16.1921C12.5667 15.9687 13.2472 16.2827 13.4729 16.9009C13.697 17.5169 13.3816 18.199 12.7641 18.4231C11.7191 18.8054 10.6192 18.9991 9.49987 18.9991L9.5 19Z" fill="white"/>
</svg>
