<svg width="20" height="34" viewBox="0 0 20 34" fill="none" xmlns="http://www.w3.org/2000/svg">
<path d="M19.2255 0.00549494L14.1445 0.00789898C14.1445 0.00789898 14.0416 0 13.8564 0C12.8139 0 7.54163 0.294624 6.10721 6.04482C6.08475 6.10862 5.60221 7.54795 5.59449 10.8953H0.774528C0.34702 10.8953 0 11.2482 0 11.6831V16.2004C0 16.6353 0.34702 16.9882 0.774528 16.9882H6.04601V33.2122C6.04601 33.647 6.39299 34 6.82054 34H12.8565C13.284 34 13.6311 33.647 13.6311 33.2122V17.0047H18.9196C19.3472 17.0047 19.6941 16.6517 19.6941 16.2169V11.6831C19.6941 11.2482 19.3472 10.8953 18.9196 10.8953H13.6418V8.9565C13.6418 7.66527 14.4474 6.28587 16.709 6.28587H19.2255C19.653 6.28587 20 5.93295 20 5.49808V0.793289C20 0.358459 19.6538 0.00549494 19.2255 0.00549494ZM18.4509 4.71028H16.709C13.5202 4.71028 12.0928 6.84288 12.0928 8.95654V11.6831C12.0928 12.118 12.4398 12.4709 12.8673 12.4709H18.1449V15.4292H12.8565C12.4289 15.4292 12.0819 15.7821 12.0819 16.2169V32.4244H7.59506V16.2004C7.59506 15.7655 7.24809 15.4126 6.82054 15.4126H1.54906V12.4709H6.37518C6.58351 12.4709 6.78255 12.3859 6.92821 12.2346C7.07386 12.0834 7.15359 11.8793 7.14975 11.6674C7.08082 8.08448 7.56489 6.57581 7.58814 6.4994C8.73054 1.93091 12.6752 1.57559 13.8564 1.57559C13.9641 1.57559 14.0284 1.57877 14.0911 1.58113H18.4509V4.71028Z" fill="#01C0EA"/>
</svg>
