<svg width="17" height="19" viewBox="0 0 17 19" fill="none" xmlns="http://www.w3.org/2000/svg">
<path d="M15.4264 1.82066L9.76328 8.47113V17.2797L7.23779 15.1915L7.23692 8.47125L1.57295 1.82079C1.50958 1.75022 1.49742 1.65012 1.54257 1.56725C1.5825 1.48273 1.67193 1.4294 1.77002 1.43268H15.2296C15.3277 1.4294 15.418 1.48355 15.4579 1.56807C15.5022 1.65012 15.4901 1.75023 15.4267 1.82079L15.4264 1.82066ZM15.2296 0H1.77001C1.08329 0 0.472086 0.362688 0.175152 0.949361L0.17602 0.948541C-0.121758 1.52866 -0.0366853 2.21793 0.393066 2.71846L5.72209 8.97506V15.2983C5.72209 15.6429 5.87836 15.9711 6.15271 16.1967L9.18361 18.7036C9.55607 19.0138 10.0865 19.0876 10.5371 18.8915C10.9912 18.7011 11.282 18.2744 11.2785 17.8051V8.97525L16.6076 2.71865C17.0364 2.21894 17.1215 1.52886 16.8246 0.949555C16.5329 0.366978 15.9113 -0.00310381 15.2297 0.000194118" fill="#01C0EA"/>
</svg>
