<svg width="21" height="23" viewBox="0 0 21 23" fill="none" xmlns="http://www.w3.org/2000/svg">
<path d="M15.4264 5.82066L9.76328 12.4711V21.2797L7.23779 19.1915L7.23692 12.4713L1.57295 5.82079C1.50958 5.75022 1.49742 5.65012 1.54257 5.56725C1.5825 5.48273 1.67193 5.4294 1.77002 5.43268H15.2296C15.3277 5.4294 15.418 5.48355 15.4579 5.56807C15.5022 5.65012 15.4901 5.75023 15.4267 5.82079L15.4264 5.82066ZM15.2296 4H1.77001C1.08329 4 0.472086 4.36269 0.175152 4.94936L0.17602 4.94854C-0.121758 5.52866 -0.0366853 6.21793 0.393066 6.71846L5.72209 12.9751V19.2983C5.72209 19.6429 5.87836 19.9711 6.15271 20.1967L9.18361 22.7036C9.55607 23.0138 10.0865 23.0876 10.5371 22.8915C10.9912 22.7011 11.282 22.2744 11.2785 21.8051V12.9753L16.6076 6.71865C17.0364 6.21894 17.1215 5.52886 16.8246 4.94956C16.5329 4.36698 15.9113 3.9969 15.2297 4.00019" fill="#01C0EA"/>
<circle cx="17" cy="4" r="3.5" fill="#F60808" stroke="white"/>
</svg>
