<svg width="21" height="19" viewBox="0 0 21 19" fill="none" xmlns="http://www.w3.org/2000/svg">
<path d="M5.45835 0.00013069C4.0561 0.00013069 2.66143 0.560576 1.59804 1.68692C-0.528541 3.93855 -0.533929 7.55259 1.5894 9.80623L10.0957 18.8345C10.3019 19.0552 10.6926 19.0552 10.8988 18.8345C13.7369 15.8291 16.5672 12.8203 19.4051 9.8149C21.5316 7.56327 21.5316 3.94727 19.4051 1.69559C17.2785 -0.556035 13.8027 -0.556035 11.6759 1.69559L10.5014 2.9279L9.32693 1.68684C8.18053 0.468702 6.76127 -0.00535098 5.45835 0.00013069ZM5.45835 1.10136C6.56374 1.10136 7.67452 1.55584 8.53272 2.46479L10.1044 4.13412C10.3106 4.35481 10.7014 4.35481 10.9076 4.13412L12.4706 2.47354C14.187 0.655638 16.8944 0.655638 18.6108 2.47354C20.3272 4.29144 20.3272 7.22805 18.6108 9.04595C15.9078 11.9082 13.2049 14.7749 10.5017 17.6374L2.39251 9.03728C0.677221 7.2172 0.676143 4.28277 2.39251 2.46487C3.25071 1.55592 4.3529 1.10136 5.45835 1.10136Z" fill="#A1A1A1"/>
</svg>
