<svg width="19" height="20" viewBox="0 0 19 20" fill="none" xmlns="http://www.w3.org/2000/svg">
<path d="M9.52003 1.74399C7.95486 3.42135 7.52821 5.84812 8.22246 7.94412L0.356433 16.374L0 20L4.47016 19.1796L4.65715 16.9752L6.71406 16.7748L6.90105 14.5705L8.95795 14.3701L11.5882 11.5513C13.5449 12.2953 15.8085 11.8391 17.3736 10.1607C19.5421 7.83674 19.5421 4.06796 17.3736 1.74295C15.2052 -0.580984 11.6885 -0.580984 9.51898 1.74295L9.52003 1.74399ZM13.6339 3.34715C14.2538 2.68284 15.258 2.68284 15.8779 3.34715C16.4977 4.01146 16.4977 5.08761 15.8779 5.75192C15.258 6.41623 14.2538 6.41623 13.6339 5.75192C13.0141 5.08761 13.0141 4.01146 13.6339 3.34715Z" fill="white"/>
</svg>
