<svg width="20" height="27" viewBox="0 0 20 27" fill="none" xmlns="http://www.w3.org/2000/svg">
<path d="M9.99992 0C4.48563 0 0 4.54184 0 10.1252C0 20.593 9.16326 26.6184 9.55409 26.869C9.82752 27.0437 10.1758 27.0437 10.4492 26.869C10.8366 26.6185 20 20.5935 20 10.1252C20 4.54184 15.5144 0 10.0001 0H9.99992ZM9.99992 25.1283C8.2096 23.8033 1.66665 18.3913 1.66665 10.1252C1.66665 5.47134 5.40362 1.68754 9.99992 1.68754C14.5962 1.68754 18.3332 5.47134 18.3332 10.1252C18.3332 18.3916 11.7902 23.8036 9.99992 25.1283ZM9.99992 5.90638C7.70177 5.90638 5.83329 7.79828 5.83329 10.1252C5.83329 12.4522 7.70177 14.3441 9.99992 14.3441C12.2981 14.3441 14.1665 12.4522 14.1665 10.1252C14.1665 7.79828 12.2981 5.90638 9.99992 5.90638ZM9.99992 12.6565C8.62301 12.6565 7.49994 11.5194 7.49994 10.1252C7.49994 8.73107 8.62301 7.59392 9.99992 7.59392C11.3768 7.59392 12.4999 8.73107 12.4999 10.1252C12.4999 11.5194 11.3768 12.6565 9.99992 12.6565Z" fill="#01C0EA"/>
</svg>
