<svg width="19" height="19" viewBox="0 0 19 19" fill="none" xmlns="http://www.w3.org/2000/svg">
<path d="M18.8125 17.9148L12.8621 11.9707C14.4881 10.0356 14.9947 7.39563 14.2004 4.9957C13.4068 2.59679 11.4251 0.780257 8.9661 0.19687C6.5071 -0.386477 3.92062 0.346264 2.13344 2.13346C0.346257 3.92066 -0.386464 6.50695 0.19686 8.96616C0.780204 11.4252 2.59657 13.4068 4.99567 14.2005C7.39537 14.9949 10.0355 14.4882 11.9706 12.8622L17.9147 18.8127C18.0333 18.932 18.1953 19 18.3637 19C18.5321 19 18.6941 18.932 18.8127 18.8127C18.932 18.6941 19 18.5321 19 18.3637C19 18.1953 18.932 18.0333 18.8127 17.9147L18.8125 17.9148ZM1.28997 7.29748C1.28997 5.70394 1.92311 4.17597 3.04949 3.04966C4.17587 1.92328 5.70376 1.29013 7.29729 1.29013C8.89082 1.29013 10.4188 1.92328 11.5451 3.04966C12.6715 4.17605 13.3046 5.70394 13.3046 7.29748C13.3046 8.89103 12.6715 10.419 11.5451 11.5453C10.4187 12.6717 8.89082 13.3048 7.29729 13.3048C5.70455 13.3033 4.17741 12.6693 3.05111 11.5437C1.92552 10.4173 1.29159 8.89026 1.29001 7.29752L1.28997 7.29748Z" fill="#01C0EA"/>
</svg>
