<svg width="30" height="30" viewBox="0 0 30 30" fill="none" xmlns="http://www.w3.org/2000/svg">
<path d="M16.1124 15L29.7716 1.34081H29.7685C30.0772 1.03524 30.0772 0.537178 29.7685 0.231545C29.463 -0.0770842 28.9649 -0.0770842 28.6593 0.231545L15 13.8876L1.3408 0.228416V0.231472C1.03523 -0.0771573 0.537178 -0.0771573 0.231545 0.231472C-0.0770842 0.537043 -0.0770842 1.0351 0.231545 1.34073L13.8876 15L0.228416 28.6592H0.231472C-0.0771573 28.9648 -0.0771573 29.4628 0.231472 29.7685C0.537043 30.0771 1.0351 30.0771 1.34073 29.7685L15 16.1124L28.6592 29.7716V29.7685C28.9648 30.0772 29.4628 30.0772 29.7685 29.7685C30.0771 29.463 30.0771 28.9649 29.7685 28.6593L16.1124 15Z" fill="#646464"/>
</svg>
