<svg width="19" height="20" viewBox="0 0 19 20" fill="none" xmlns="http://www.w3.org/2000/svg">
<path d="M18.876 16.9173C17.1201 21.1457 2.45862 20.9074 0.188046 16.9173C-0.930416 14.9535 3.21538 12.8325 5.37059 11.9692C6.52758 12.8279 7.9706 13.3377 9.53158 13.3377C11.096 13.3377 12.538 12.8279 13.6961 11.9692C15.8513 12.8314 19.7425 14.8339 18.8763 16.9173H18.876Z" fill="white"/>
<path d="M15.9272 6.2448C15.9272 9.69431 13.0645 12.4896 9.53176 12.4896C6.0023 12.4896 3.13965 9.69454 3.13965 6.2448C3.13965 2.79733 6.00233 0 9.53176 0C13.0645 0 15.9272 2.79733 15.9272 6.2448Z" fill="white"/>
</svg>
