<svg width="131" height="131" viewBox="0 0 131 131" fill="none" xmlns="http://www.w3.org/2000/svg">
<path fill-rule="evenodd" clip-rule="evenodd" d="M65.5 131C101.675 131 131 101.675 131 65.5C131 29.3253 101.675 0 65.5 0C29.3253 0 0 29.3253 0 65.5C0 101.675 29.3253 131 65.5 131ZM25 59.43C25 40.961 43.352 26 66 26V25.9955C88.648 25.9955 107 40.9565 107 59.4255C107 77.8945 88.648 92.8555 66 92.8555C62.7969 92.8555 57.9922 92.5664 55 92L33 104L41 85C31.4023 78.883 25 70.133 25 59.43Z" fill="#F3F3F3"/>
</svg>
