<svg width="19" height="19" viewBox="0 0 19 19" fill="none" xmlns="http://www.w3.org/2000/svg">
<path d="M9.83735 10.1288L2.08898 10.9012L0.0436502 17.65C-0.0731149 18.0473 0.0490632 18.4782 0.354508 18.7479C0.659961 19.0184 1.09146 19.0766 1.45335 18.8963L18.4564 10.3984C18.7889 10.2316 19 9.88292 19 9.50071C19 9.11931 18.7889 8.77062 18.4564 8.60306L1.45335 0.103695C1.09146 -0.0766345 0.659961 -0.0183876 0.354508 0.252107C0.0490545 0.521802 -0.0731268 0.952684 0.0436502 1.35005L2.0866 8.09087L9.83498 8.86486C10.1482 8.89678 10.3863 9.16808 10.3863 9.49282C10.3863 9.81756 10.1482 10.0889 9.83498 10.1208L9.83735 10.1288Z" fill="#A1A1A1"/>
</svg>
