<svg width="19" height="19" viewBox="0 0 19 19" fill="none" xmlns="http://www.w3.org/2000/svg">
<path d="M14.29 10.7224C13.6981 11.3266 13.4279 12.1961 13.5675 13.0479L14.2516 17.2156L10.6708 15.2478H10.67C10.3099 15.0498 9.90829 14.9466 9.50089 14.9457C9.09513 14.9457 8.69101 15.0498 8.33178 15.2478L4.75099 17.2156L5.43513 13.0479H5.43431C5.57392 12.1962 5.30369 11.3267 4.7118 10.7224L1.81443 7.77057L5.81887 7.16212V7.16297C6.63692 7.03838 7.34474 6.50163 7.71049 5.72678L9.50086 1.93369L11.2912 5.72678C11.6578 6.50163 12.3648 7.03924 13.1837 7.16297L17.1873 7.77142L14.2899 10.7232L14.29 10.7224ZM18.0683 6.39931L13.3877 5.68846H13.3885C13.0342 5.6347 12.7272 5.40259 12.5697 5.06636L10.4772 0.634052H10.4764C10.2951 0.24406 9.91548 -0.0025578 9.50074 2.00143e-05C9.11294 2.00143e-05 8.72435 0.210798 8.52513 0.6332L6.43262 5.06551L6.43181 5.06636C6.27343 5.40259 5.96726 5.6347 5.61295 5.68847L0.932394 6.39931C0.0400686 6.53499 -0.3159 7.68105 0.329889 8.33898L3.71631 11.7891C3.97267 12.0502 4.08942 12.4274 4.029 12.7952L3.22974 17.6671C3.10891 18.4026 3.66816 18.9983 4.30168 18.9983C4.46823 18.9983 4.64049 18.9573 4.80786 18.8652L8.99433 16.5646V16.5663C9.31109 16.3922 9.68991 16.3922 10.0067 16.5663L14.1932 18.8669C14.3597 18.959 14.532 19 14.6993 19C15.3329 19 15.8921 18.4035 15.7713 17.6688L14.972 12.7969L14.9712 12.7952C14.9116 12.4266 15.0284 12.0511 15.2839 11.7891L18.6703 8.33898C19.3161 7.68105 18.9593 6.53499 18.0678 6.39931L18.0683 6.39931Z" fill="#01C0EA"/>
</svg>
