<svg width="17" height="17" viewBox="0 0 17 17" fill="none" xmlns="http://www.w3.org/2000/svg">
<path d="M16.1501 4.51114L9.97493 0.444604C9.07533 -0.148201 7.9263 -0.148201 7.02661 0.444604L0.851448 4.51114C0.32079 4.8602 0 5.46729 0 6.11901C0 6.77163 0.32079 7.3778 0.851448 7.72778L3.17184 9.25618L2.99639 9.14012V12.854C2.99639 13.5066 3.31804 14.1128 3.84784 14.4628L7.0258 16.5554H7.02666C7.92626 17.1482 9.07529 17.1482 9.97498 16.5554L13.1529 14.4628H13.1538C13.6836 14.1128 14.0052 13.5066 14.0052 12.854V9.14012L15.8397 7.93221V13.2414C15.8397 13.5038 16.0453 13.7172 16.299 13.7172C16.5518 13.7172 16.7574 13.5038 16.7574 13.2414V7.06076C17.2442 6.17871 16.9767 5.05563 16.1502 4.51109L16.1501 4.51114ZM13.0875 9.7444V12.8547V12.8538C13.0884 13.1806 12.9275 13.4841 12.6618 13.6582L9.48381 15.7508C8.88349 16.1463 8.11806 16.1463 7.51774 15.7508L4.33978 13.6582C4.07404 13.4841 3.9132 13.1806 3.91406 12.8538V9.74443L7.02663 11.7942C7.92623 12.387 9.07526 12.387 9.97495 11.7942L13.0875 9.7444ZM15.6582 6.92322L9.48306 10.9898H9.48392C8.8836 11.3853 8.11818 11.3853 7.51786 10.9898L1.3427 6.92322C1.07781 6.74824 0.916973 6.44469 0.916973 6.11885C0.916973 5.79299 1.0778 5.48946 1.3427 5.31537L7.51786 1.24884V1.24794C8.11818 0.853335 8.8836 0.853336 9.48392 1.24884L15.6591 5.31537C15.924 5.48946 16.0848 5.79299 16.0848 6.11885C16.0848 6.44471 15.924 6.74825 15.6591 6.92322H15.6582Z" fill="#01C0EA"/>
</svg>
