<svg width="9" height="15" viewBox="0 0 9 15" fill="none" xmlns="http://www.w3.org/2000/svg">
<path d="M0.382823 0H8.61687C8.82856 0 8.99985 0.18636 8.99985 0.416666V4.14311C8.99985 4.23914 8.96993 4.33192 8.91383 4.40597L6.57114 7.53908L8.91248 10.6339C8.96933 10.7087 9 10.8023 9 10.8983V14.5833C9 14.8136 8.82871 15 8.61702 15H0.382979C0.171287 15 0 14.8136 0 14.5833V10.8983C0 10.8015 0.0306688 10.7079 0.0875163 10.6339L2.42886 7.53908L0.0861758 4.40597C0.0308239 4.33191 0.00015486 4.23914 0.00015486 4.14311V0.416666C0.00015486 0.186354 0.171448 0 0.383134 0H0.382823ZM8.0424 1.04166H0.957292V3.92082L3.5671 7.4104C3.6247 7.48689 3.6247 7.59757 3.56635 7.67406L0.957309 11.1222V13.9582H8.04242V11.1222L5.43414 7.67406C5.37654 7.59757 5.37579 7.48689 5.43339 7.4104L8.04243 3.92082L8.0424 1.04166Z" fill="#01C0EA"/>
<path d="M7.18044 1.979V3.63021L4.9088 6.68687C4.80856 6.82196 4.65896 6.89926 4.49964 6.89926C4.33957 6.89926 4.19071 6.82195 4.09049 6.68687L1.81885 3.63021V1.979H7.18044Z" fill="#01C0EA"/>
</svg>
