<svg width="19" height="22" viewBox="0 0 19 22" fill="none" xmlns="http://www.w3.org/2000/svg">
<path d="M0.730397 4.89153H2.00387C2.00387 4.89422 2.00205 4.89781 2.00114 4.9005C1.99931 4.96865 1.99201 14.203 1.99201 14.2928C1.99201 14.6676 1.98744 15.0353 1.98288 15.394C1.95458 17.7327 1.92993 19.752 3.16051 20.9751C3.85339 21.6646 4.84661 22 6.19581 22H12.7833C14.1353 22 15.1313 21.6646 15.8268 20.9732C17.0656 19.7438 17.0428 17.7091 17.0163 15.3536C17.0126 15.0083 17.009 14.6541 17.009 14.2945C17.009 14.2031 17.0017 4.97045 16.9999 4.89607C16.9999 4.89428 16.9989 4.89338 16.9989 4.89159H18.2697C18.6732 4.89159 19 4.57057 19 4.17421C19 3.77785 18.6732 3.45683 18.2697 3.45683H13.6852L13.6843 2.79147C13.6843 1.25269 12.4026 0 10.8278 0H8.17131C6.59657 0 5.3148 1.25182 5.3148 2.79147V3.45683H0.730312C0.326806 3.45683 0 3.77785 0 4.17421C0 4.56967 0.327717 4.89159 0.730312 4.89159L0.730397 4.89153ZM15.5484 14.2937C15.5484 14.6586 15.552 15.0182 15.5566 15.3689C15.5785 17.4035 15.5986 19.1603 14.7888 19.9638C14.3808 20.3682 13.7253 20.5655 12.7832 20.5655H6.19569C5.25633 20.5655 4.60361 20.37 4.19919 19.9682C3.39858 19.1719 3.41959 17.4295 3.44423 15.4119C3.44879 15.0469 3.45335 14.6739 3.45335 14.2937C3.45335 14.2354 3.46066 5.14451 3.46248 4.92826C3.46248 4.91481 3.45518 4.90405 3.45518 4.8915H15.5463C15.5454 4.90495 15.539 4.91571 15.539 4.92916C15.5409 5.12644 15.5482 14.2363 15.5482 14.2937L15.5484 14.2937ZM6.77551 2.79151C6.77551 2.04364 7.40175 1.43475 8.17133 1.43475H10.8278C11.5974 1.43475 12.2236 2.04362 12.2236 2.79151V3.45687H6.7756L6.77551 2.79151Z" fill="#A1A1A1"/>
<path d="M9.49984 7.21835C9.09634 7.21835 8.76953 7.53937 8.76953 7.93573V17.8723C8.76953 18.2687 9.09634 18.5897 9.49984 18.5897C9.90335 18.5897 10.2302 18.2687 10.2302 17.8723V7.93573C10.2302 7.54027 9.90335 7.21835 9.49984 7.21835Z" fill="#A1A1A1"/>
<path d="M6.31039 7.21835C5.90688 7.21835 5.58008 7.53937 5.58008 7.93573V17.8723C5.58008 18.2687 5.90688 18.5897 6.31039 18.5897C6.7139 18.5897 7.0407 18.2687 7.0407 17.8723V7.93573C7.0407 7.54027 6.7139 7.21835 6.31039 7.21835Z" fill="#A1A1A1"/>
<path d="M12.6893 7.21835C12.2858 7.21835 11.959 7.53937 11.959 7.93573V17.8723C11.959 18.2687 12.2858 18.5897 12.6893 18.5897C13.0928 18.5897 13.4196 18.2687 13.4196 17.8723V7.93573C13.4196 7.54027 13.0919 7.21835 12.6893 7.21835Z" fill="#A1A1A1"/>
</svg>
