<svg width="33" height="27" viewBox="0 0 33 27" fill="none" xmlns="http://www.w3.org/2000/svg">
<path d="M10.6524 27C6.98474 27 3.41833 25.959 0.33753 23.9881C0.0499676 23.8039 -0.0717869 23.4472 0.0426343 23.1256C0.157055 22.8039 0.484196 22.5992 0.82018 22.6475C3.40366 22.9472 6.10011 22.4238 8.36232 21.1343C6.12507 20.4646 4.30593 18.7378 3.57093 16.4483C3.49171 16.2012 3.54893 15.9322 3.72201 15.7392C3.82765 15.6222 3.96698 15.5433 4.11812 15.5112C2.37085 14.185 1.26762 12.0913 1.26762 9.79149C1.26762 9.53269 1.40555 9.25347 1.62997 9.12186C1.85445 8.99026 2.13171 8.94936 2.35764 9.07215C2.42218 9.1087 2.48818 9.14379 2.55424 9.17598C1.76057 8.00776 1.32046 6.61003 1.32046 5.15087C1.32046 3.88469 1.65639 2.63613 2.29606 1.5425C2.41636 1.33491 2.63199 1.20041 2.87259 1.18138C3.11173 1.16386 3.34499 1.26328 3.49754 1.44749C6.46537 5.07488 10.7609 7.37472 15.3939 7.84697C15.3733 7.62622 15.3631 7.40105 15.3631 7.17879C15.3631 3.22097 18.595 0 22.5663 0C24.4104 0 26.1958 0.712032 27.5279 1.9694C28.7529 1.69012 29.9265 1.22083 31.0224 0.573119C31.285 0.421039 31.6137 0.442965 31.8527 0.630135C32.0904 0.820208 32.1873 1.13603 32.0948 1.42552C31.8615 2.15216 31.5154 2.83201 31.0708 3.44172C31.376 3.33645 31.6752 3.21801 31.9701 3.08791C32.265 2.9534 32.6185 3.0353 32.8283 3.28674C33.0381 3.53528 33.0572 3.8935 32.8768 4.16397C32.0244 5.43015 30.9857 6.53399 29.7871 7.45071C29.7915 7.60859 29.793 7.76798 29.793 7.92586C29.7931 17.3007 22.6323 27 10.6524 27ZM3.71322 24.1227C5.89477 25.054 8.24936 25.5379 10.6524 25.5379C21.7154 25.5379 28.326 16.5827 28.326 7.92441C28.326 7.65685 28.3186 7.38783 28.3084 7.12027C28.2981 6.87463 28.4126 6.64071 28.6121 6.49744C29.1402 6.1173 29.636 5.69771 30.0953 5.24153C29.617 5.35121 29.1314 5.43601 28.6399 5.49447C28.2996 5.54273 27.971 5.33363 27.858 5.00615C27.7465 4.68012 27.8786 4.32045 28.1749 4.14204C28.7573 3.79409 29.2679 3.34962 29.6875 2.83641C28.9554 3.11569 28.2013 3.33349 27.4311 3.48262C27.1847 3.53383 26.9279 3.45193 26.7548 3.26627C25.6751 2.11998 24.1478 1.46206 22.5663 1.46206C19.4034 1.46206 16.8302 4.0265 16.8302 7.17874C16.8302 7.6159 16.8801 8.05596 16.9798 8.48291C17.0311 8.70517 16.9754 8.94055 16.8272 9.11745C16.6805 9.29291 16.459 9.41425 16.2286 9.37771C11.2216 9.12621 6.505 6.90827 3.1161 3.24139C2.89901 3.85255 2.7875 4.49875 2.7875 5.15087C2.7875 7.06911 3.7411 8.84554 5.33723 9.90848C5.61012 10.0898 5.72891 10.4275 5.62916 10.739C5.5294 11.0489 5.21984 11.236 4.90888 11.2477C4.20908 11.2258 3.51366 11.1015 2.85059 10.8793C3.30391 13.1441 5.05118 14.9395 7.33394 15.3971C7.66841 15.4644 7.91192 15.7495 7.92222 16.0887C7.93397 16.4264 7.71101 16.729 7.38381 16.8197C6.75153 16.9908 6.08695 17.0873 5.43704 17.0741C6.41997 18.8066 8.26554 19.9339 10.3253 19.9748C10.6348 19.9807 10.9077 20.1824 11.006 20.4749C11.1043 20.7673 11.006 21.0919 10.7624 21.282C8.70122 22.8917 6.28641 23.8595 3.71322 24.1227Z" fill="#01C0EA"/>
</svg>
