<svg width="17" height="17" viewBox="0 0 17 17" fill="none" xmlns="http://www.w3.org/2000/svg">
<path d="M8.5 0C3.81329 0 0 3.81329 0 8.49924C0 13.1867 3.81329 17 8.5 17C13.1867 17 17 13.1867 17 8.49924C17 3.8131 13.1867 0 8.5 0ZM8.5 15.8542C4.44474 15.8542 1.1458 12.5545 1.1458 8.5C1.1458 4.44474 4.44474 1.1458 8.5 1.1458C12.5553 1.1458 15.8542 4.44474 15.8542 8.49924C15.8542 12.5545 12.5553 15.8542 8.5 15.8542Z" fill="#01C0EA"/>
<path d="M8.70288 8.04413C7.36369 7.78146 6.73276 7.58297 6.73276 6.91227C6.73276 6.4275 6.94232 6.09103 7.37395 5.8815C8.12361 5.51847 9.36843 5.66014 10.0369 6.18623C10.2863 6.38325 10.6464 6.33971 10.8419 6.08958C11.0374 5.84092 10.9946 5.48084 10.7452 5.28606C10.287 4.926 9.69159 4.69652 9.07179 4.59545V3.57722C9.07179 3.26068 8.81575 3.00391 8.49847 3.00391C8.18193 3.00391 7.92516 3.25995 7.92516 3.57722V4.56224C7.55033 4.60503 7.18953 4.69726 6.87225 4.85073C6.04218 5.25359 5.58545 5.98554 5.58545 6.91226C5.58545 8.59898 7.25889 8.92809 8.47998 9.16854C9.79778 9.42679 10.2656 9.60535 10.2656 10.0864C10.2656 10.5579 10.0671 10.8899 9.65833 11.1002C8.93893 11.4743 7.73468 11.3629 7.02711 10.8619C6.76886 10.6804 6.41101 10.7402 6.22875 10.9984C6.04576 11.2567 6.10627 11.6138 6.36451 11.7975C6.80353 12.1089 7.35471 12.3096 7.92506 12.4018V13.772C7.92506 14.0885 8.18109 14.3453 8.49837 14.3453C8.81491 14.3453 9.07169 14.0893 9.07169 13.772V12.4173C9.4716 12.3723 9.8575 12.2882 10.1851 12.1192C10.9761 11.7104 11.4114 10.9888 11.4114 10.0864C11.4136 8.57674 9.91062 8.28161 8.70273 8.04412L8.70288 8.04413Z" fill="#01C0EA"/>
</svg>
