<svg width="24" height="24" viewBox="0 0 24 24" fill="none" xmlns="http://www.w3.org/2000/svg">
<path d="M12 0C5.38298 0 0 5.38298 0 12C0 18.617 5.38298 24 12 24C18.617 24 24 18.617 24 12C24 5.38298 18.617 0 12 0ZM11.1628 1.81395V5.57274H8.25879C8.93902 3.65632 9.93103 2.25321 11.1628 1.81395ZM12.8372 1.81395C14.0691 2.25327 15.0611 3.65626 15.7412 5.57274H12.8372V1.81395ZM8.13656 2.42442C7.52283 3.29216 6.99848 4.35611 6.58423 5.57261H3.91563C5.01773 4.18708 6.46758 3.09695 8.13656 2.42442ZM15.8634 2.42442C17.5324 3.09703 18.9823 4.18714 20.0844 5.57261H17.4158C17.0015 4.35603 16.4772 3.29207 15.8634 2.42442ZM2.83423 7.24702H6.10465C5.82449 8.45813 5.65116 9.77718 5.59884 11.154H1.70916C1.82254 9.7543 2.22042 8.43198 2.83415 7.24702H2.83423ZM7.77042 7.24702H11.1628V11.154H7.27312C7.32326 9.78371 7.49223 8.45269 7.7702 7.24702H7.77042ZM12.8372 7.24702H16.2296C16.5076 8.45269 16.6765 9.78371 16.7267 11.154H12.837L12.8372 7.24702ZM17.8953 7.24702H21.1658C21.7795 8.43198 22.1774 9.7543 22.2908 11.154H18.4011C18.3488 9.77718 18.1754 8.45813 17.8953 7.24702H17.8953ZM1.7093 12.8284H5.59898C5.64912 14.2085 5.82463 15.5221 6.10479 16.7354H2.82572C2.21417 15.5493 1.82062 14.2281 1.70944 12.8284H1.7093ZM7.2734 12.8284H11.1631V16.7354H7.7707C7.49272 15.5286 7.32374 14.1998 7.27362 12.8284H7.2734ZM12.8375 12.8284H16.7272C16.677 14.1998 16.508 15.5286 16.2301 16.7354H12.8377L12.8375 12.8284ZM18.4016 12.8284H22.2913C22.1801 14.2281 21.7865 15.5493 21.175 16.7354H17.8959C18.1761 15.5221 18.3516 14.2085 18.4017 12.8284H18.4016ZM3.90726 18.4098H6.57586C6.9912 19.6329 7.5199 20.7045 8.13692 21.5756C6.46359 20.9019 5.0105 19.8009 3.90734 18.4098H3.90726ZM8.25014 18.4098H11.1631V22.1773C9.92905 21.7379 8.93051 20.3317 8.25014 18.4098ZM12.8375 18.4098H15.7504C15.0702 20.3317 14.0716 21.738 12.8375 22.1773V18.4098ZM17.4248 18.4098H20.0934C18.9903 19.8008 17.5371 20.9018 15.8639 21.5756C16.4809 20.7046 17.0096 19.633 17.4249 18.4098H17.4248Z" fill="#01C0EA"/>
</svg>
