<svg width="35" height="25" viewBox="0 0 35 25" fill="none" xmlns="http://www.w3.org/2000/svg">
<path d="M22.0693 11.5897C22.4085 11.7654 22.6226 12.1168 22.6226 12.5001C22.6226 12.8834 22.4084 13.2348 22.0693 13.4105L18.8963 15.0557L15.4237 16.8505C15.1104 17.0103 14.7356 16.9963 14.4341 16.8126C14.1327 16.6289 13.9483 16.2995 13.9463 15.9441V9.05588C13.9463 8.6985 14.1307 8.36905 14.4322 8.18342C14.7336 7.99774 15.1084 7.98376 15.4237 8.14548L18.8963 9.94434L22.0693 11.5897Z" stroke="#01C0EA" stroke-width="1.5282" stroke-linecap="round" stroke-linejoin="round"/>
<path d="M6.58462 1H28.4154C31.4992 1 34 4.10459 34 6.62222V18.3778C34 21.4824 31.4992 24 28.4154 24H6.58462C3.50079 24 1 20.8954 1 18.3778V6.62222C1 3.51763 3.50079 1 6.58462 1Z" stroke="#01C0EA" stroke-width="1.5282" stroke-linecap="round" stroke-linejoin="round"/>
</svg>
