<?xml version="1.0" standalone="no"?>
<!DOCTYPE svg PUBLIC "-//W3C//DTD SVG 20010904//EN"
 "http://www.w3.org/TR/2001/REC-SVG-20010904/DTD/svg10.dtd">
<svg version="1.0" xmlns="http://www.w3.org/2000/svg"
 width="736.000000pt" height="736.000000pt" viewBox="0 0 736.000000 736.000000"
 preserveAspectRatio="xMidYMid meet">
<metadata>
Created by potrace 1.11, written by Peter Selinger 2001-2013
</metadata>
<g transform="translate(0.000000,736.000000) scale(0.100000,-0.100000)"
fill="#000000" stroke="none">
<path d="M3786 7343 c-2 -2 -43 -6 -92 -9 -141 -10 -147 -10 -189 -17 -22 -4
-60 -9 -85 -12 -59 -8 -107 -16 -134 -21 -11 -2 -37 -7 -56 -10 -19 -3 -43 -7
-52 -10 -10 -3 -30 -7 -45 -10 -50 -9 -207 -46 -253 -60 -253 -76 -328 -100
-420 -133 -119 -44 -143 -54 -218 -87 -29 -13 -55 -24 -58 -24 -16 0 -504
-238 -514 -251 -3 -4 -30 -19 -60 -35 -30 -15 -57 -31 -60 -34 -3 -4 -32 -22
-65 -40 -33 -19 -61 -37 -63 -42 -2 -4 -8 -8 -13 -8 -5 0 -71 -42 -146 -92
-74 -51 -145 -98 -158 -105 -12 -7 -34 -24 -48 -37 -15 -14 -28 -25 -30 -23
-3 3 -79 -55 -97 -74 -8 -9 -37 -34 -65 -55 -27 -21 -52 -41 -55 -44 -3 -3
-30 -25 -60 -50 -30 -25 -57 -47 -60 -50 -3 -3 -30 -25 -60 -50 -30 -25 -58
-49 -62 -54 -11 -16 48 -112 144 -236 82 -105 183 -236 200 -261 10 -13 35
-47 55 -76 21 -28 56 -77 78 -107 22 -31 43 -56 47 -56 4 0 8 -5 8 -11 0 -7
15 -30 33 -53 18 -23 40 -52 49 -66 9 -14 24 -35 34 -47 11 -11 26 -31 34 -43
18 -26 235 -321 247 -335 5 -5 30 -40 57 -77 l49 -67 36 19 c20 10 74 41 119
69 46 28 85 51 87 51 4 0 131 74 205 120 166 100 448 258 560 312 562 272 647
318 635 339 -4 5 -8 19 -10 31 -3 12 -13 50 -24 83 -16 53 -29 98 -36 130 -3
12 -54 191 -62 218 -4 13 1 17 23 18 16 1 32 1 36 0 16 -2 419 -14 510 -15 54
-1 98 -3 98 -6 0 -3 53 -5 118 -6 116 -1 414 -10 652 -19 135 -6 300 -11 620
-20 113 -4 206 -8 208 -10 10 -10 -185 -363 -533 -965 -43 -74 -88 -153 -101
-175 -47 -85 -296 -521 -304 -530 -4 -5 -21 -35 -37 -65 -17 -30 -92 -163
-168 -295 -76 -132 -152 -264 -167 -292 -16 -29 -33 -55 -38 -58 -21 -13 -69
108 -156 390 -28 93 -79 205 -97 217 -12 7 -142 -56 -225 -108 -29 -19 -54
-34 -56 -34 -5 0 -167 -111 -321 -220 -38 -27 -75 -53 -80 -57 -6 -4 -39 -28
-75 -53 -36 -24 -66 -48 -68 -52 -2 -4 -8 -8 -14 -8 -6 0 -26 -11 -44 -25 -18
-14 -35 -25 -39 -25 -8 0 -69 -43 -73 -52 -2 -5 -8 -8 -13 -8 -5 0 -31 -16
-58 -35 -26 -19 -53 -35 -60 -35 -6 0 -11 -4 -11 -9 0 -5 -13 -17 -29 -28 -15
-10 -44 -31 -62 -46 -19 -15 -130 -100 -248 -187 -261 -196 -291 -220 -411
-336 -87 -84 -160 -149 -236 -214 -16 -13 -58 -49 -94 -79 -67 -57 -184 -174
-248 -249 -20 -23 -52 -59 -70 -79 -73 -81 -247 -318 -323 -442 -43 -68 -99
-171 -99 -181 0 -5 -4 -10 -10 -10 -5 0 -10 -4 -10 -10 0 -5 -14 -40 -31 -77
-17 -38 -45 -106 -61 -153 -16 -47 -34 -94 -39 -105 -25 -56 -60 -233 -76
-385 -9 -87 -9 -667 0 -677 9 -8 6154 -11 6168 -2 5 3 8 332 7 805 l-3 799
-1550 2 c-852 1 -1572 2 -1600 3 l-50 0 35 22 c19 12 37 25 40 28 3 3 32 23
65 45 33 21 62 42 63 47 2 4 8 8 13 8 5 0 59 34 120 75 61 41 114 75 119 75 5
0 10 3 12 8 3 7 204 143 223 151 6 2 12 7 15 10 5 6 72 51 111 76 34 21 234
154 244 162 6 5 87 60 180 122 94 62 172 117 175 121 3 4 19 14 37 23 17 9 37
22 45 29 7 7 40 31 73 53 33 22 65 43 70 48 9 6 116 85 184 134 51 37 177 138
211 169 36 32 85 76 225 199 99 87 219 206 265 264 19 24 43 52 53 63 9 10 17
21 17 24 0 3 7 12 15 20 8 9 36 46 62 82 26 37 51 70 56 73 5 3 9 10 9 15 0 5
13 28 29 51 16 23 29 46 29 52 0 6 5 11 10 11 6 0 10 7 10 15 0 8 4 15 8 15 4
0 15 15 23 33 9 17 42 82 73 142 109 208 177 390 212 560 34 168 36 198 38
385 1 229 -7 297 -64 530 -21 88 -131 377 -148 390 -4 3 -24 38 -45 77 -20 40
-59 105 -85 144 -26 39 -51 79 -57 88 -5 9 -13 18 -16 21 -4 3 -33 39 -66 80
-109 137 -269 290 -418 402 -210 155 -414 263 -710 374 -11 4 -25 8 -31 9 -7
2 -38 12 -70 23 -55 20 -194 59 -239 68 -11 2 -31 6 -45 9 -14 3 -36 8 -50 11
-70 15 -170 31 -235 39 -27 4 -61 8 -75 10 -82 13 -584 28 -594 18z"/>
</g>
</svg>
