<svg width="116" height="116" viewBox="0 0 116 116" fill="none" xmlns="http://www.w3.org/2000/svg">
<path fill-rule="evenodd" clip-rule="evenodd" d="M116 58C116 90.0325 90.0325 116 58 116C25.9675 116 0 90.0325 0 58C0 25.9675 25.9675 0 58 0C90.0325 0 116 25.9675 116 58ZM62.801 64.5C63.301 63.1992 62.6995 61.6992 61.4026 61.1992C61.2944 61.1627 61.1736 61.1135 61.0446 61.061C60.8148 60.9675 60.5587 60.8633 60.301 60.8008C65.0002 58.4023 68.301 53.4023 68.301 47.8008C68.301 39.6992 61.6994 33.1017 53.602 33.1017C45.5004 33.1017 39 39.6995 39 47.8008C39 53.5 42.1992 58.4028 47 60.8008C38.8984 63.6016 33 71.3008 33 80.3008C33 81.6992 34.1016 82.8008 35.5 82.8008C36.8984 82.8008 38 81.6992 38 80.3008C38 71.6992 45 64.6988 53.602 64.6988C55.602 64.6988 57.602 65.0972 59.4028 65.8004C60.8012 66.398 62.3012 65.8004 62.8012 64.4996L62.801 64.5ZM44.102 47.801C44.102 42.5002 48.4028 38.1994 53.7036 38.1994C59.0044 38.1994 63.3052 42.5002 63.3052 47.801C63.3052 53.1018 59.0044 57.4026 53.7036 57.4026C48.3989 57.3987 44.102 53.1018 44.102 47.801ZM78.398 61.0002C79.1988 59.801 80.6988 59.5002 81.898 60.301L81.8976 60.3017C83.1008 61.1025 83.3 62.7001 82.5891 64.0049L70.3901 81.9028C69.9916 82.5044 69.2924 82.9029 68.4916 83.0044H68.2924C67.5933 83.0044 66.894 82.7036 66.394 82.2036L58.894 74.1021C57.894 73.1021 57.9956 71.5005 58.9956 70.5005C59.9956 69.5004 61.5972 69.602 62.5972 70.602L67.898 76.3012L78.398 61.0002ZM58 110C86.7188 110 110 86.7188 110 58C110 29.2812 86.7188 6 58 6C29.2812 6 6 29.2812 6 58C6 86.7188 29.2812 110 58 110ZM58 112C87.8234 112 112 87.8234 112 58C112 28.1766 87.8234 4 58 4C28.1766 4 4 28.1766 4 58C4 87.8234 28.1766 112 58 112Z" fill="white"/>
</svg>
