<svg width="145" height="69" viewBox="0 0 145 69" fill="none" xmlns="http://www.w3.org/2000/svg">
<path d="M92 38.9547L94.9036 37.2557C96.9477 40.9256 99.3093 42.7605 101.988 42.7605C103.134 42.7605 104.211 42.5038 105.217 41.9903C106.224 41.4617 106.99 40.7594 107.517 39.8835C108.043 39.0076 108.307 38.0787 108.307 37.0971C108.307 35.9795 107.919 34.8846 107.145 33.8123C106.077 32.3323 104.125 30.5502 101.292 28.466C98.4421 26.3668 96.669 24.849 95.9721 23.9126C94.7642 22.342 94.1603 20.6429 94.1603 18.8155C94.1603 17.3657 94.5165 16.0442 95.2288 14.8511C95.9412 13.658 96.94 12.7217 98.2253 12.0421C99.5261 11.3474 100.935 11 102.453 11C104.063 11 105.566 11.3927 106.959 12.178C108.369 12.9482 109.855 14.3754 111.419 16.4595L108.632 18.521C107.346 16.8598 106.247 15.7648 105.333 15.2362C104.435 14.7077 103.452 14.4434 102.383 14.4434C101.005 14.4434 99.8746 14.8511 98.9919 15.6667C98.1247 16.4822 97.6911 17.4865 97.6911 18.6796C97.6911 19.4045 97.8459 20.1068 98.1556 20.7864C98.4654 21.466 99.0306 22.206 99.8513 23.0065C100.3 23.4293 101.772 24.5394 104.265 26.3366C107.223 28.466 109.251 30.3614 110.351 32.0227C111.45 33.6839 112 35.3528 112 37.0291C112 39.4455 111.055 41.5448 109.166 43.3269C107.292 45.109 105.008 46 102.314 46C100.238 46 98.3569 45.4639 96.669 44.3916C94.981 43.3042 93.4247 41.4919 92 38.9547Z" fill="white"/>
<path d="M122 11H125.471V31.6101C125.471 34.0548 125.518 35.5789 125.613 36.1824C125.786 37.5285 126.188 38.658 126.817 39.571C127.447 40.4684 128.415 41.2266 129.722 41.8455C131.028 42.4489 132.343 42.7507 133.665 42.7507C134.815 42.7507 135.916 42.5108 136.971 42.0312C138.026 41.5515 138.908 40.8862 139.616 40.0351C140.324 39.1841 140.844 38.1552 141.175 36.9483C141.411 36.0818 141.529 34.3024 141.529 31.6101V11H145V31.6101C145 34.6583 144.693 37.1262 144.079 39.0139C143.481 40.8862 142.269 42.5186 140.443 43.9111C138.632 45.3037 136.436 46 133.854 46C131.052 46 128.651 45.3424 126.652 44.0272C124.653 42.712 123.315 40.9713 122.638 38.805C122.213 37.4744 122 35.076 122 31.6101V11Z" fill="white"/>
<path fill-rule="evenodd" clip-rule="evenodd" d="M57.1659 24.7632L56.4664 25.2458C56.204 25.4067 56.204 25.4067 55.8543 25.648C55.0673 26.372 52.2691 28.2222 51.3072 29.2679C50.6951 29.9115 49.8206 30.6355 49.1211 31.1986C47.1973 32.9683 44.8363 36.0251 43.9619 38.5188C42.9126 41.1734 43.1749 43.1041 43.1749 46H82V35.8642H61.8879C61.8879 35.7838 70.8072 29.9919 73.2556 28.1418C74.4798 27.2569 75.4417 26.2916 76.7534 25.1654C78.7646 23.2348 80.8632 19.7757 81.4753 17.1211C83.0493 10.5248 78.852 3.92855 72.2937 1.43483C63.287 -2.10464 52.9686 1.35439 45.6233 6.90492L43 9.07687C43.3498 9.8813 44.0493 10.6053 44.574 11.3293C45.2735 12.2141 45.6233 12.7772 46.2354 13.5817L49.5583 18.0864L54.63 15.1101C56.204 14.2252 58.4776 13.3403 59.8767 12.4555L59.0022 9.3182L73.2556 9.80086C73.0807 10.5248 69.6704 16.2363 69.0583 17.3625L64.7735 24.8436C63.9865 23.637 63.9865 22.1086 63.1996 20.9019C61.3632 21.6259 58.9148 23.7174 57.1659 24.7632Z" fill="white"/>
<path d="M33 18.0227L30.338 20.0388C28.8693 18.151 27.1022 16.7238 25.0369 15.7573C22.9868 14.7756 20.7302 14.2848 18.267 14.2848C15.5744 14.2848 13.0807 14.9266 10.7858 16.2104C8.49096 17.479 6.70862 19.1931 5.4388 21.3528C4.18428 23.4973 3.55702 25.9137 3.55702 28.6019C3.55702 32.6645 4.96453 36.055 7.77955 38.7735C10.6099 41.4919 14.1745 42.8511 18.4736 42.8511C23.201 42.8511 27.1558 41.0237 30.338 37.3689L33 39.3625C31.3171 41.4768 29.2135 43.1154 26.6891 44.2783C24.1801 45.4261 21.3727 46 18.267 46C12.3616 46 7.70306 44.0593 4.29138 40.178C1.43046 36.9008 0 32.9439 0 28.3074C0 23.4293 1.72879 19.329 5.18637 16.0065C8.65925 12.6688 13.0042 11 18.2211 11C21.3727 11 24.2184 11.6192 26.758 12.8576C29.2976 14.0809 31.3783 15.8026 33 18.0227Z" fill="white"/>
<mask id="path-5-outside-1" maskUnits="userSpaceOnUse" x="0" y="56" width="144" height="13" fill="black">
<rect fill="white" y="56" width="144" height="13"/>
<path d="M10.9708 59.2071L10.1665 59.8408C9.72272 59.2475 9.18881 58.7989 8.56477 58.4951C7.94535 58.1866 7.26353 58.0324 6.5193 58.0324C5.70574 58.0324 4.95226 58.2341 4.25888 58.6375C3.5655 59.0362 3.02698 59.575 2.64331 60.2537C2.26426 60.9277 2.07474 61.6872 2.07474 62.532C2.07474 63.8088 2.50001 64.8744 3.35056 65.7288C4.20573 66.5832 5.28277 67.0104 6.58171 67.0104C8.01007 67.0104 9.20499 66.436 10.1665 65.2874L10.9708 65.9139C10.4623 66.5784 9.82672 67.0934 9.06401 67.4589C8.30591 67.8196 7.45768 68 6.5193 68C4.73501 68 3.32744 67.3901 2.29662 66.1702C1.43221 65.1402 1 63.8967 1 62.4395C1 60.9064 1.52235 59.6177 2.56704 58.5735C3.61635 57.5245 4.92915 57 6.50543 57C7.45768 57 8.31747 57.1946 9.08481 57.5838C9.85215 57.9683 10.4808 58.5094 10.9708 59.2071Z"/>
<path d="M14.0172 57.2634H15.0434V66.7256H18.961V67.7366H14.0172V57.2634Z"/>
<path d="M21.425 57.2634H22.4443V67.7366H21.425V57.2634Z"/>
<path d="M35.2812 59.2071L34.4769 59.8408C34.0332 59.2475 33.4993 58.7989 32.8752 58.4951C32.2558 58.1866 31.574 58.0324 30.8297 58.0324C30.0162 58.0324 29.2627 58.2341 28.5693 58.6375C27.8759 59.0362 27.3374 59.575 26.9538 60.2537C26.5747 60.9277 26.3852 61.6872 26.3852 62.532C26.3852 63.8088 26.8105 64.8744 27.661 65.7288C28.5162 66.5832 29.5932 67.0104 30.8922 67.0104C32.3205 67.0104 33.5154 66.436 34.4769 65.2874L35.2812 65.9139C34.7728 66.5784 34.1372 67.0934 33.3745 67.4589C32.6164 67.8196 31.7681 68 30.8297 68C29.0454 68 27.6379 67.3901 26.6071 66.1702C25.7427 65.1402 25.3104 63.8967 25.3104 62.4395C25.3104 60.9064 25.8328 59.6177 26.8775 58.5735C27.9268 57.5245 29.2396 57 30.8159 57C31.7681 57 32.6279 57.1946 33.3953 57.5838C34.1626 57.9683 34.7913 58.5094 35.2812 59.2071Z"/>
<path d="M38.3277 57.2634H39.3677V61.1935L43.4379 57.2634H44.8177L39.9155 61.9625L45.1991 67.7366H43.847L39.3677 62.8524V67.7366H38.3277V57.2634Z"/>
<path d="M51.6317 58.2816V57.2634H57.2273V58.2816H54.953V67.7366H53.9129V58.2816H51.6317Z"/>
<path d="M64.5449 57C66.0888 57 67.3808 57.5292 68.4209 58.5877C69.461 59.6462 69.981 60.9491 69.981 62.4964C69.981 64.0296 69.461 65.3301 68.4209 66.3981C67.3855 67.466 66.1212 68 64.6281 68C63.1166 68 61.8407 67.4684 60.8007 66.4052C59.7606 65.342 59.2406 64.0557 59.2406 62.5463C59.2406 61.54 59.4763 60.6073 59.9478 59.7482C60.4239 58.8891 61.0711 58.2175 61.8893 57.7333C62.7075 57.2444 63.5927 57 64.5449 57ZM64.5935 58.0252C63.84 58.0252 63.1258 58.227 62.4509 58.6304C61.776 59.0339 61.2491 59.5773 60.87 60.2608C60.491 60.9443 60.3014 61.7061 60.3014 62.5463C60.3014 63.7899 60.7198 64.8412 61.5565 65.7003C62.3978 66.5547 63.4101 66.9819 64.5935 66.9819C65.3839 66.9819 66.1143 66.7849 66.7845 66.3909C67.4594 65.997 67.9841 65.4583 68.3585 64.7748C68.7376 64.0913 68.9271 63.3318 68.9271 62.4964C68.9271 61.6658 68.7376 60.9159 68.3585 60.2466C67.9841 59.5726 67.4548 59.0339 66.7707 58.6304C66.0865 58.227 65.3608 58.0252 64.5935 58.0252Z"/>
<path d="M76.899 65.7858L77.7657 65.2518C78.3759 66.4052 79.0808 66.9819 79.8805 66.9819C80.2226 66.9819 80.5439 66.9012 80.8443 66.7398C81.1448 66.5737 81.3736 66.353 81.5308 66.0777C81.6879 65.8024 81.7665 65.5105 81.7665 65.2019C81.7665 64.8507 81.651 64.5066 81.4198 64.1696C81.1009 63.7044 80.5184 63.1443 79.6725 62.4893C78.822 61.8296 78.2927 61.3525 78.0847 61.0583C77.7241 60.5646 77.5438 60.0306 77.5438 59.4563C77.5438 59.0006 77.6502 58.5853 77.8628 58.2104C78.0754 57.8354 78.3736 57.5411 78.7573 57.3275C79.1455 57.1092 79.5662 57 80.0192 57C80.5 57 80.9483 57.1234 81.3644 57.3702C81.785 57.6123 82.2288 58.0608 82.6957 58.7159L81.8636 59.3638C81.4799 58.8416 81.1517 58.4975 80.879 58.3314C80.6109 58.1653 80.3174 58.0822 79.9984 58.0822C79.587 58.0822 79.2496 58.2104 78.9861 58.4667C78.7272 58.723 78.5978 59.0386 78.5978 59.4136C78.5978 59.6414 78.644 59.8621 78.7365 60.0757C78.8289 60.2893 78.9976 60.5219 79.2426 60.7735C79.3767 60.9064 79.8158 61.2552 80.56 61.8201C81.4429 62.4893 82.0485 63.085 82.3767 63.6071C82.7049 64.1292 82.869 64.6537 82.869 65.1806C82.869 65.94 82.587 66.5998 82.0231 67.1599C81.4638 67.72 80.7819 68 79.9776 68C79.3582 68 78.7965 67.8315 78.2927 67.4945C77.7888 67.1528 77.3243 66.5832 76.899 65.7858Z"/>
<path d="M86.0541 57.2634H87.0734V63.5858C87.0734 64.3357 87.0872 64.8032 87.115 64.9883C87.1658 65.4013 87.2837 65.7478 87.4686 66.0278C87.6535 66.3031 87.9378 66.5357 88.3215 66.7256C88.7051 66.9107 89.0911 67.0032 89.4794 67.0032C89.8169 67.0032 90.1404 66.9297 90.4501 66.7825C90.7598 66.6354 91.0187 66.4313 91.2267 66.1702C91.4347 65.9092 91.5873 65.5935 91.6844 65.2233C91.7537 64.9575 91.7884 64.4117 91.7884 63.5858V57.2634H92.8076V63.5858C92.8076 64.5208 92.7175 65.2779 92.5372 65.857C92.3615 66.4313 92.0056 66.932 91.4694 67.3592C90.9378 67.7864 90.293 68 89.5349 68C88.7121 68 88.0071 67.7983 87.4201 67.3948C86.833 66.9914 86.4401 66.4574 86.2413 65.7929C86.1165 65.3847 86.0541 64.649 86.0541 63.5858V57.2634Z"/>
<path d="M105.818 59.2071L105.014 59.8408C104.57 59.2475 104.036 58.7989 103.412 58.4951C102.792 58.1866 102.111 58.0324 101.366 58.0324C100.553 58.0324 99.7994 58.2341 99.106 58.6375C98.4126 59.0362 97.8741 59.575 97.4904 60.2537C97.1114 60.9277 96.9219 61.6872 96.9219 62.532C96.9219 63.8088 97.3471 64.8744 98.1977 65.7288C99.0529 66.5832 100.13 67.0104 101.429 67.0104C102.857 67.0104 104.052 66.436 105.014 65.2874L105.818 65.9139C105.309 66.5784 104.674 67.0934 103.911 67.4589C103.153 67.8196 102.305 68 101.366 68C99.5821 68 98.1746 67.3901 97.1437 66.1702C96.2793 65.1402 95.8471 63.8967 95.8471 62.4395C95.8471 60.9064 96.3695 59.6177 97.4142 58.5735C98.4635 57.5245 99.7763 57 101.353 57C102.305 57 103.165 57.1946 103.932 57.5838C104.699 57.9683 105.328 58.5094 105.818 59.2071Z"/>
<path d="M118.364 59.2071L117.559 59.8408C117.116 59.2475 116.582 58.7989 115.958 58.4951C115.338 58.1866 114.656 58.0324 113.912 58.0324C113.099 58.0324 112.345 58.2341 111.652 58.6375C110.958 59.0362 110.42 59.575 110.036 60.2537C109.657 60.9277 109.468 61.6872 109.468 62.532C109.468 63.8088 109.893 64.8744 110.743 65.7288C111.599 66.5832 112.676 67.0104 113.975 67.0104C115.403 67.0104 116.598 66.436 117.559 65.2874L118.364 65.9139C117.855 66.5784 117.22 67.0934 116.457 67.4589C115.699 67.8196 114.851 68 113.912 68C112.128 68 110.72 67.3901 109.689 66.1702C108.825 65.1402 108.393 63.8967 108.393 62.4395C108.393 60.9064 108.915 59.6177 109.96 58.5735C111.009 57.5245 112.322 57 113.898 57C114.851 57 115.71 57.1946 116.478 57.5838C117.245 57.9683 117.874 58.5094 118.364 59.2071Z"/>
<path d="M121.417 57.2634H127.262V58.2958H122.436V61.5709H127.221V62.5961H122.436V66.7042H127.221V67.7366H121.417V57.2634Z"/>
<path d="M128.964 65.7858L129.83 65.2518C130.44 66.4052 131.145 66.9819 131.945 66.9819C132.287 66.9819 132.608 66.9012 132.909 66.7398C133.209 66.5737 133.438 66.353 133.595 66.0777C133.752 65.8024 133.831 65.5105 133.831 65.2019C133.831 64.8507 133.715 64.5066 133.484 64.1696C133.165 63.7044 132.583 63.1443 131.737 62.4893C130.886 61.8296 130.357 61.3525 130.149 61.0583C129.789 60.5646 129.608 60.0306 129.608 59.4563C129.608 59.0006 129.715 58.5853 129.927 58.2104C130.14 57.8354 130.438 57.5411 130.822 57.3275C131.21 57.1092 131.631 57 132.084 57C132.564 57 133.013 57.1234 133.429 57.3702C133.85 57.6123 134.293 58.0608 134.76 58.7159L133.928 59.3638C133.544 58.8416 133.216 58.4975 132.944 58.3314C132.675 58.1653 132.382 58.0822 132.063 58.0822C131.652 58.0822 131.314 58.2104 131.051 58.4667C130.792 58.723 130.662 59.0386 130.662 59.4136C130.662 59.6414 130.709 59.8621 130.801 60.0757C130.893 60.2893 131.062 60.5219 131.307 60.7735C131.441 60.9064 131.88 61.2552 132.625 61.8201C133.507 62.4893 134.113 63.085 134.441 63.6071C134.769 64.1292 134.934 64.6537 134.934 65.1806C134.934 65.94 134.652 66.5998 134.088 67.1599C133.528 67.72 132.846 68 132.042 68C131.423 68 130.861 67.8315 130.357 67.4945C129.853 67.1528 129.389 66.5832 128.964 65.7858Z"/>
<path d="M137.03 65.7858L137.897 65.2518C138.507 66.4052 139.212 66.9819 140.012 66.9819C140.354 66.9819 140.675 66.9012 140.975 66.7398C141.276 66.5737 141.505 66.353 141.662 66.0777C141.819 65.8024 141.898 65.5105 141.898 65.2019C141.898 64.8507 141.782 64.5066 141.551 64.1696C141.232 63.7044 140.649 63.1443 139.804 62.4893C138.953 61.8296 138.424 61.3525 138.216 61.0583C137.855 60.5646 137.675 60.0306 137.675 59.4563C137.675 59.0006 137.781 58.5853 137.994 58.2104C138.206 57.8354 138.505 57.5411 138.888 57.3275C139.277 57.1092 139.697 57 140.15 57C140.631 57 141.079 57.1234 141.495 57.3702C141.916 57.6123 142.36 58.0608 142.827 58.7159L141.995 59.3638C141.611 58.8416 141.283 58.4975 141.01 58.3314C140.742 58.1653 140.448 58.0822 140.129 58.0822C139.718 58.0822 139.381 58.2104 139.117 58.4667C138.858 58.723 138.729 59.0386 138.729 59.4136C138.729 59.6414 138.775 59.8621 138.867 60.0757C138.96 60.2893 139.129 60.5219 139.374 60.7735C139.508 60.9064 139.947 61.2552 140.691 61.8201C141.574 62.4893 142.18 63.085 142.508 63.6071C142.836 64.1292 143 64.6537 143 65.1806C143 65.94 142.718 66.5998 142.154 67.1599C141.595 67.72 140.913 68 140.109 68C139.489 68 138.928 67.8315 138.424 67.4945C137.92 67.1528 137.455 66.5832 137.03 65.7858Z"/>
</mask>
<path d="M10.9708 59.2071L10.1665 59.8408C9.72272 59.2475 9.18881 58.7989 8.56477 58.4951C7.94535 58.1866 7.26353 58.0324 6.5193 58.0324C5.70574 58.0324 4.95226 58.2341 4.25888 58.6375C3.5655 59.0362 3.02698 59.575 2.64331 60.2537C2.26426 60.9277 2.07474 61.6872 2.07474 62.532C2.07474 63.8088 2.50001 64.8744 3.35056 65.7288C4.20573 66.5832 5.28277 67.0104 6.58171 67.0104C8.01007 67.0104 9.20499 66.436 10.1665 65.2874L10.9708 65.9139C10.4623 66.5784 9.82672 67.0934 9.06401 67.4589C8.30591 67.8196 7.45768 68 6.5193 68C4.73501 68 3.32744 67.3901 2.29662 66.1702C1.43221 65.1402 1 63.8967 1 62.4395C1 60.9064 1.52235 59.6177 2.56704 58.5735C3.61635 57.5245 4.92915 57 6.50543 57C7.45768 57 8.31747 57.1946 9.08481 57.5838C9.85215 57.9683 10.4808 58.5094 10.9708 59.2071Z" fill="white"/>
<path d="M14.0172 57.2634H15.0434V66.7256H18.961V67.7366H14.0172V57.2634Z" fill="white"/>
<path d="M21.425 57.2634H22.4443V67.7366H21.425V57.2634Z" fill="white"/>
<path d="M35.2812 59.2071L34.4769 59.8408C34.0332 59.2475 33.4993 58.7989 32.8752 58.4951C32.2558 58.1866 31.574 58.0324 30.8297 58.0324C30.0162 58.0324 29.2627 58.2341 28.5693 58.6375C27.8759 59.0362 27.3374 59.575 26.9538 60.2537C26.5747 60.9277 26.3852 61.6872 26.3852 62.532C26.3852 63.8088 26.8105 64.8744 27.661 65.7288C28.5162 66.5832 29.5932 67.0104 30.8922 67.0104C32.3205 67.0104 33.5154 66.436 34.4769 65.2874L35.2812 65.9139C34.7728 66.5784 34.1372 67.0934 33.3745 67.4589C32.6164 67.8196 31.7681 68 30.8297 68C29.0454 68 27.6379 67.3901 26.6071 66.1702C25.7427 65.1402 25.3104 63.8967 25.3104 62.4395C25.3104 60.9064 25.8328 59.6177 26.8775 58.5735C27.9268 57.5245 29.2396 57 30.8159 57C31.7681 57 32.6279 57.1946 33.3953 57.5838C34.1626 57.9683 34.7913 58.5094 35.2812 59.2071Z" fill="white"/>
<path d="M38.3277 57.2634H39.3677V61.1935L43.4379 57.2634H44.8177L39.9155 61.9625L45.1991 67.7366H43.847L39.3677 62.8524V67.7366H38.3277V57.2634Z" fill="white"/>
<path d="M51.6317 58.2816V57.2634H57.2273V58.2816H54.953V67.7366H53.9129V58.2816H51.6317Z" fill="white"/>
<path d="M64.5449 57C66.0888 57 67.3808 57.5292 68.4209 58.5877C69.461 59.6462 69.981 60.9491 69.981 62.4964C69.981 64.0296 69.461 65.3301 68.4209 66.3981C67.3855 67.466 66.1212 68 64.6281 68C63.1166 68 61.8407 67.4684 60.8007 66.4052C59.7606 65.342 59.2406 64.0557 59.2406 62.5463C59.2406 61.54 59.4763 60.6073 59.9478 59.7482C60.4239 58.8891 61.0711 58.2175 61.8893 57.7333C62.7075 57.2444 63.5927 57 64.5449 57ZM64.5935 58.0252C63.84 58.0252 63.1258 58.227 62.4509 58.6304C61.776 59.0339 61.2491 59.5773 60.87 60.2608C60.491 60.9443 60.3014 61.7061 60.3014 62.5463C60.3014 63.7899 60.7198 64.8412 61.5565 65.7003C62.3978 66.5547 63.4101 66.9819 64.5935 66.9819C65.3839 66.9819 66.1143 66.7849 66.7845 66.3909C67.4594 65.997 67.9841 65.4583 68.3585 64.7748C68.7376 64.0913 68.9271 63.3318 68.9271 62.4964C68.9271 61.6658 68.7376 60.9159 68.3585 60.2466C67.9841 59.5726 67.4548 59.0339 66.7707 58.6304C66.0865 58.227 65.3608 58.0252 64.5935 58.0252Z" fill="white"/>
<path d="M76.899 65.7858L77.7657 65.2518C78.3759 66.4052 79.0808 66.9819 79.8805 66.9819C80.2226 66.9819 80.5439 66.9012 80.8443 66.7398C81.1448 66.5737 81.3736 66.353 81.5308 66.0777C81.6879 65.8024 81.7665 65.5105 81.7665 65.2019C81.7665 64.8507 81.651 64.5066 81.4198 64.1696C81.1009 63.7044 80.5184 63.1443 79.6725 62.4893C78.822 61.8296 78.2927 61.3525 78.0847 61.0583C77.7241 60.5646 77.5438 60.0306 77.5438 59.4563C77.5438 59.0006 77.6502 58.5853 77.8628 58.2104C78.0754 57.8354 78.3736 57.5411 78.7573 57.3275C79.1455 57.1092 79.5662 57 80.0192 57C80.5 57 80.9483 57.1234 81.3644 57.3702C81.785 57.6123 82.2288 58.0608 82.6957 58.7159L81.8636 59.3638C81.4799 58.8416 81.1517 58.4975 80.879 58.3314C80.6109 58.1653 80.3174 58.0822 79.9984 58.0822C79.587 58.0822 79.2496 58.2104 78.9861 58.4667C78.7272 58.723 78.5978 59.0386 78.5978 59.4136C78.5978 59.6414 78.644 59.8621 78.7365 60.0757C78.8289 60.2893 78.9976 60.5219 79.2426 60.7735C79.3767 60.9064 79.8158 61.2552 80.56 61.8201C81.4429 62.4893 82.0485 63.085 82.3767 63.6071C82.7049 64.1292 82.869 64.6537 82.869 65.1806C82.869 65.94 82.587 66.5998 82.0231 67.1599C81.4638 67.72 80.7819 68 79.9776 68C79.3582 68 78.7965 67.8315 78.2927 67.4945C77.7888 67.1528 77.3243 66.5832 76.899 65.7858Z" fill="white"/>
<path d="M86.0541 57.2634H87.0734V63.5858C87.0734 64.3357 87.0872 64.8032 87.115 64.9883C87.1658 65.4013 87.2837 65.7478 87.4686 66.0278C87.6535 66.3031 87.9378 66.5357 88.3215 66.7256C88.7051 66.9107 89.0911 67.0032 89.4794 67.0032C89.8169 67.0032 90.1404 66.9297 90.4501 66.7825C90.7598 66.6354 91.0187 66.4313 91.2267 66.1702C91.4347 65.9092 91.5873 65.5935 91.6844 65.2233C91.7537 64.9575 91.7884 64.4117 91.7884 63.5858V57.2634H92.8076V63.5858C92.8076 64.5208 92.7175 65.2779 92.5372 65.857C92.3615 66.4313 92.0056 66.932 91.4694 67.3592C90.9378 67.7864 90.293 68 89.5349 68C88.7121 68 88.0071 67.7983 87.4201 67.3948C86.833 66.9914 86.4401 66.4574 86.2413 65.7929C86.1165 65.3847 86.0541 64.649 86.0541 63.5858V57.2634Z" fill="white"/>
<path d="M105.818 59.2071L105.014 59.8408C104.57 59.2475 104.036 58.7989 103.412 58.4951C102.792 58.1866 102.111 58.0324 101.366 58.0324C100.553 58.0324 99.7994 58.2341 99.106 58.6375C98.4126 59.0362 97.8741 59.575 97.4904 60.2537C97.1114 60.9277 96.9219 61.6872 96.9219 62.532C96.9219 63.8088 97.3471 64.8744 98.1977 65.7288C99.0529 66.5832 100.13 67.0104 101.429 67.0104C102.857 67.0104 104.052 66.436 105.014 65.2874L105.818 65.9139C105.309 66.5784 104.674 67.0934 103.911 67.4589C103.153 67.8196 102.305 68 101.366 68C99.5821 68 98.1746 67.3901 97.1437 66.1702C96.2793 65.1402 95.8471 63.8967 95.8471 62.4395C95.8471 60.9064 96.3695 59.6177 97.4142 58.5735C98.4635 57.5245 99.7763 57 101.353 57C102.305 57 103.165 57.1946 103.932 57.5838C104.699 57.9683 105.328 58.5094 105.818 59.2071Z" fill="white"/>
<path d="M118.364 59.2071L117.559 59.8408C117.116 59.2475 116.582 58.7989 115.958 58.4951C115.338 58.1866 114.656 58.0324 113.912 58.0324C113.099 58.0324 112.345 58.2341 111.652 58.6375C110.958 59.0362 110.42 59.575 110.036 60.2537C109.657 60.9277 109.468 61.6872 109.468 62.532C109.468 63.8088 109.893 64.8744 110.743 65.7288C111.599 66.5832 112.676 67.0104 113.975 67.0104C115.403 67.0104 116.598 66.436 117.559 65.2874L118.364 65.9139C117.855 66.5784 117.22 67.0934 116.457 67.4589C115.699 67.8196 114.851 68 113.912 68C112.128 68 110.72 67.3901 109.689 66.1702C108.825 65.1402 108.393 63.8967 108.393 62.4395C108.393 60.9064 108.915 59.6177 109.96 58.5735C111.009 57.5245 112.322 57 113.898 57C114.851 57 115.71 57.1946 116.478 57.5838C117.245 57.9683 117.874 58.5094 118.364 59.2071Z" fill="white"/>
<path d="M121.417 57.2634H127.262V58.2958H122.436V61.5709H127.221V62.5961H122.436V66.7042H127.221V67.7366H121.417V57.2634Z" fill="white"/>
<path d="M128.964 65.7858L129.83 65.2518C130.44 66.4052 131.145 66.9819 131.945 66.9819C132.287 66.9819 132.608 66.9012 132.909 66.7398C133.209 66.5737 133.438 66.353 133.595 66.0777C133.752 65.8024 133.831 65.5105 133.831 65.2019C133.831 64.8507 133.715 64.5066 133.484 64.1696C133.165 63.7044 132.583 63.1443 131.737 62.4893C130.886 61.8296 130.357 61.3525 130.149 61.0583C129.789 60.5646 129.608 60.0306 129.608 59.4563C129.608 59.0006 129.715 58.5853 129.927 58.2104C130.14 57.8354 130.438 57.5411 130.822 57.3275C131.21 57.1092 131.631 57 132.084 57C132.564 57 133.013 57.1234 133.429 57.3702C133.85 57.6123 134.293 58.0608 134.76 58.7159L133.928 59.3638C133.544 58.8416 133.216 58.4975 132.944 58.3314C132.675 58.1653 132.382 58.0822 132.063 58.0822C131.652 58.0822 131.314 58.2104 131.051 58.4667C130.792 58.723 130.662 59.0386 130.662 59.4136C130.662 59.6414 130.709 59.8621 130.801 60.0757C130.893 60.2893 131.062 60.5219 131.307 60.7735C131.441 60.9064 131.88 61.2552 132.625 61.8201C133.507 62.4893 134.113 63.085 134.441 63.6071C134.769 64.1292 134.934 64.6537 134.934 65.1806C134.934 65.94 134.652 66.5998 134.088 67.1599C133.528 67.72 132.846 68 132.042 68C131.423 68 130.861 67.8315 130.357 67.4945C129.853 67.1528 129.389 66.5832 128.964 65.7858Z" fill="white"/>
<path d="M137.03 65.7858L137.897 65.2518C138.507 66.4052 139.212 66.9819 140.012 66.9819C140.354 66.9819 140.675 66.9012 140.975 66.7398C141.276 66.5737 141.505 66.353 141.662 66.0777C141.819 65.8024 141.898 65.5105 141.898 65.2019C141.898 64.8507 141.782 64.5066 141.551 64.1696C141.232 63.7044 140.649 63.1443 139.804 62.4893C138.953 61.8296 138.424 61.3525 138.216 61.0583C137.855 60.5646 137.675 60.0306 137.675 59.4563C137.675 59.0006 137.781 58.5853 137.994 58.2104C138.206 57.8354 138.505 57.5411 138.888 57.3275C139.277 57.1092 139.697 57 140.15 57C140.631 57 141.079 57.1234 141.495 57.3702C141.916 57.6123 142.36 58.0608 142.827 58.7159L141.995 59.3638C141.611 58.8416 141.283 58.4975 141.01 58.3314C140.742 58.1653 140.448 58.0822 140.129 58.0822C139.718 58.0822 139.381 58.2104 139.117 58.4667C138.858 58.723 138.729 59.0386 138.729 59.4136C138.729 59.6414 138.775 59.8621 138.867 60.0757C138.96 60.2893 139.129 60.5219 139.374 60.7735C139.508 60.9064 139.947 61.2552 140.691 61.8201C141.574 62.4893 142.18 63.085 142.508 63.6071C142.836 64.1292 143 64.6537 143 65.1806C143 65.94 142.718 66.5998 142.154 67.1599C141.595 67.72 140.913 68 140.109 68C139.489 68 138.928 67.8315 138.424 67.4945C137.92 67.1528 137.455 66.5832 137.03 65.7858Z" fill="white"/>
<path d="M10.9708 59.2071L10.1665 59.8408C9.72272 59.2475 9.18881 58.7989 8.56477 58.4951C7.94535 58.1866 7.26353 58.0324 6.5193 58.0324C5.70574 58.0324 4.95226 58.2341 4.25888 58.6375C3.5655 59.0362 3.02698 59.575 2.64331 60.2537C2.26426 60.9277 2.07474 61.6872 2.07474 62.532C2.07474 63.8088 2.50001 64.8744 3.35056 65.7288C4.20573 66.5832 5.28277 67.0104 6.58171 67.0104C8.01007 67.0104 9.20499 66.436 10.1665 65.2874L10.9708 65.9139C10.4623 66.5784 9.82672 67.0934 9.06401 67.4589C8.30591 67.8196 7.45768 68 6.5193 68C4.73501 68 3.32744 67.3901 2.29662 66.1702C1.43221 65.1402 1 63.8967 1 62.4395C1 60.9064 1.52235 59.6177 2.56704 58.5735C3.61635 57.5245 4.92915 57 6.50543 57C7.45768 57 8.31747 57.1946 9.08481 57.5838C9.85215 57.9683 10.4808 58.5094 10.9708 59.2071Z" stroke="white" stroke-width="0.6" mask="url(#path-5-outside-1)"/>
<path d="M14.0172 57.2634H15.0434V66.7256H18.961V67.7366H14.0172V57.2634Z" stroke="white" stroke-width="0.6" mask="url(#path-5-outside-1)"/>
<path d="M21.425 57.2634H22.4443V67.7366H21.425V57.2634Z" stroke="white" stroke-width="0.6" mask="url(#path-5-outside-1)"/>
<path d="M35.2812 59.2071L34.4769 59.8408C34.0332 59.2475 33.4993 58.7989 32.8752 58.4951C32.2558 58.1866 31.574 58.0324 30.8297 58.0324C30.0162 58.0324 29.2627 58.2341 28.5693 58.6375C27.8759 59.0362 27.3374 59.575 26.9538 60.2537C26.5747 60.9277 26.3852 61.6872 26.3852 62.532C26.3852 63.8088 26.8105 64.8744 27.661 65.7288C28.5162 66.5832 29.5932 67.0104 30.8922 67.0104C32.3205 67.0104 33.5154 66.436 34.4769 65.2874L35.2812 65.9139C34.7728 66.5784 34.1372 67.0934 33.3745 67.4589C32.6164 67.8196 31.7681 68 30.8297 68C29.0454 68 27.6379 67.3901 26.6071 66.1702C25.7427 65.1402 25.3104 63.8967 25.3104 62.4395C25.3104 60.9064 25.8328 59.6177 26.8775 58.5735C27.9268 57.5245 29.2396 57 30.8159 57C31.7681 57 32.6279 57.1946 33.3953 57.5838C34.1626 57.9683 34.7913 58.5094 35.2812 59.2071Z" stroke="white" stroke-width="0.6" mask="url(#path-5-outside-1)"/>
<path d="M38.3277 57.2634H39.3677V61.1935L43.4379 57.2634H44.8177L39.9155 61.9625L45.1991 67.7366H43.847L39.3677 62.8524V67.7366H38.3277V57.2634Z" stroke="white" stroke-width="0.6" mask="url(#path-5-outside-1)"/>
<path d="M51.6317 58.2816V57.2634H57.2273V58.2816H54.953V67.7366H53.9129V58.2816H51.6317Z" stroke="white" stroke-width="0.6" mask="url(#path-5-outside-1)"/>
<path d="M64.5449 57C66.0888 57 67.3808 57.5292 68.4209 58.5877C69.461 59.6462 69.981 60.9491 69.981 62.4964C69.981 64.0296 69.461 65.3301 68.4209 66.3981C67.3855 67.466 66.1212 68 64.6281 68C63.1166 68 61.8407 67.4684 60.8007 66.4052C59.7606 65.342 59.2406 64.0557 59.2406 62.5463C59.2406 61.54 59.4763 60.6073 59.9478 59.7482C60.4239 58.8891 61.0711 58.2175 61.8893 57.7333C62.7075 57.2444 63.5927 57 64.5449 57ZM64.5935 58.0252C63.84 58.0252 63.1258 58.227 62.4509 58.6304C61.776 59.0339 61.2491 59.5773 60.87 60.2608C60.491 60.9443 60.3014 61.7061 60.3014 62.5463C60.3014 63.7899 60.7198 64.8412 61.5565 65.7003C62.3978 66.5547 63.4101 66.9819 64.5935 66.9819C65.3839 66.9819 66.1143 66.7849 66.7845 66.3909C67.4594 65.997 67.9841 65.4583 68.3585 64.7748C68.7376 64.0913 68.9271 63.3318 68.9271 62.4964C68.9271 61.6658 68.7376 60.9159 68.3585 60.2466C67.9841 59.5726 67.4548 59.0339 66.7707 58.6304C66.0865 58.227 65.3608 58.0252 64.5935 58.0252Z" stroke="white" stroke-width="0.6" mask="url(#path-5-outside-1)"/>
<path d="M76.899 65.7858L77.7657 65.2518C78.3759 66.4052 79.0808 66.9819 79.8805 66.9819C80.2226 66.9819 80.5439 66.9012 80.8443 66.7398C81.1448 66.5737 81.3736 66.353 81.5308 66.0777C81.6879 65.8024 81.7665 65.5105 81.7665 65.2019C81.7665 64.8507 81.651 64.5066 81.4198 64.1696C81.1009 63.7044 80.5184 63.1443 79.6725 62.4893C78.822 61.8296 78.2927 61.3525 78.0847 61.0583C77.7241 60.5646 77.5438 60.0306 77.5438 59.4563C77.5438 59.0006 77.6502 58.5853 77.8628 58.2104C78.0754 57.8354 78.3736 57.5411 78.7573 57.3275C79.1455 57.1092 79.5662 57 80.0192 57C80.5 57 80.9483 57.1234 81.3644 57.3702C81.785 57.6123 82.2288 58.0608 82.6957 58.7159L81.8636 59.3638C81.4799 58.8416 81.1517 58.4975 80.879 58.3314C80.6109 58.1653 80.3174 58.0822 79.9984 58.0822C79.587 58.0822 79.2496 58.2104 78.9861 58.4667C78.7272 58.723 78.5978 59.0386 78.5978 59.4136C78.5978 59.6414 78.644 59.8621 78.7365 60.0757C78.8289 60.2893 78.9976 60.5219 79.2426 60.7735C79.3767 60.9064 79.8158 61.2552 80.56 61.8201C81.4429 62.4893 82.0485 63.085 82.3767 63.6071C82.7049 64.1292 82.869 64.6537 82.869 65.1806C82.869 65.94 82.587 66.5998 82.0231 67.1599C81.4638 67.72 80.7819 68 79.9776 68C79.3582 68 78.7965 67.8315 78.2927 67.4945C77.7888 67.1528 77.3243 66.5832 76.899 65.7858Z" stroke="white" stroke-width="0.6" mask="url(#path-5-outside-1)"/>
<path d="M86.0541 57.2634H87.0734V63.5858C87.0734 64.3357 87.0872 64.8032 87.115 64.9883C87.1658 65.4013 87.2837 65.7478 87.4686 66.0278C87.6535 66.3031 87.9378 66.5357 88.3215 66.7256C88.7051 66.9107 89.0911 67.0032 89.4794 67.0032C89.8169 67.0032 90.1404 66.9297 90.4501 66.7825C90.7598 66.6354 91.0187 66.4313 91.2267 66.1702C91.4347 65.9092 91.5873 65.5935 91.6844 65.2233C91.7537 64.9575 91.7884 64.4117 91.7884 63.5858V57.2634H92.8076V63.5858C92.8076 64.5208 92.7175 65.2779 92.5372 65.857C92.3615 66.4313 92.0056 66.932 91.4694 67.3592C90.9378 67.7864 90.293 68 89.5349 68C88.7121 68 88.0071 67.7983 87.4201 67.3948C86.833 66.9914 86.4401 66.4574 86.2413 65.7929C86.1165 65.3847 86.0541 64.649 86.0541 63.5858V57.2634Z" stroke="white" stroke-width="0.6" mask="url(#path-5-outside-1)"/>
<path d="M105.818 59.2071L105.014 59.8408C104.57 59.2475 104.036 58.7989 103.412 58.4951C102.792 58.1866 102.111 58.0324 101.366 58.0324C100.553 58.0324 99.7994 58.2341 99.106 58.6375C98.4126 59.0362 97.8741 59.575 97.4904 60.2537C97.1114 60.9277 96.9219 61.6872 96.9219 62.532C96.9219 63.8088 97.3471 64.8744 98.1977 65.7288C99.0529 66.5832 100.13 67.0104 101.429 67.0104C102.857 67.0104 104.052 66.436 105.014 65.2874L105.818 65.9139C105.309 66.5784 104.674 67.0934 103.911 67.4589C103.153 67.8196 102.305 68 101.366 68C99.5821 68 98.1746 67.3901 97.1437 66.1702C96.2793 65.1402 95.8471 63.8967 95.8471 62.4395C95.8471 60.9064 96.3695 59.6177 97.4142 58.5735C98.4635 57.5245 99.7763 57 101.353 57C102.305 57 103.165 57.1946 103.932 57.5838C104.699 57.9683 105.328 58.5094 105.818 59.2071Z" stroke="white" stroke-width="0.6" mask="url(#path-5-outside-1)"/>
<path d="M118.364 59.2071L117.559 59.8408C117.116 59.2475 116.582 58.7989 115.958 58.4951C115.338 58.1866 114.656 58.0324 113.912 58.0324C113.099 58.0324 112.345 58.2341 111.652 58.6375C110.958 59.0362 110.42 59.575 110.036 60.2537C109.657 60.9277 109.468 61.6872 109.468 62.532C109.468 63.8088 109.893 64.8744 110.743 65.7288C111.599 66.5832 112.676 67.0104 113.975 67.0104C115.403 67.0104 116.598 66.436 117.559 65.2874L118.364 65.9139C117.855 66.5784 117.22 67.0934 116.457 67.4589C115.699 67.8196 114.851 68 113.912 68C112.128 68 110.72 67.3901 109.689 66.1702C108.825 65.1402 108.393 63.8967 108.393 62.4395C108.393 60.9064 108.915 59.6177 109.96 58.5735C111.009 57.5245 112.322 57 113.898 57C114.851 57 115.71 57.1946 116.478 57.5838C117.245 57.9683 117.874 58.5094 118.364 59.2071Z" stroke="white" stroke-width="0.6" mask="url(#path-5-outside-1)"/>
<path d="M121.417 57.2634H127.262V58.2958H122.436V61.5709H127.221V62.5961H122.436V66.7042H127.221V67.7366H121.417V57.2634Z" stroke="white" stroke-width="0.6" mask="url(#path-5-outside-1)"/>
<path d="M128.964 65.7858L129.83 65.2518C130.44 66.4052 131.145 66.9819 131.945 66.9819C132.287 66.9819 132.608 66.9012 132.909 66.7398C133.209 66.5737 133.438 66.353 133.595 66.0777C133.752 65.8024 133.831 65.5105 133.831 65.2019C133.831 64.8507 133.715 64.5066 133.484 64.1696C133.165 63.7044 132.583 63.1443 131.737 62.4893C130.886 61.8296 130.357 61.3525 130.149 61.0583C129.789 60.5646 129.608 60.0306 129.608 59.4563C129.608 59.0006 129.715 58.5853 129.927 58.2104C130.14 57.8354 130.438 57.5411 130.822 57.3275C131.21 57.1092 131.631 57 132.084 57C132.564 57 133.013 57.1234 133.429 57.3702C133.85 57.6123 134.293 58.0608 134.76 58.7159L133.928 59.3638C133.544 58.8416 133.216 58.4975 132.944 58.3314C132.675 58.1653 132.382 58.0822 132.063 58.0822C131.652 58.0822 131.314 58.2104 131.051 58.4667C130.792 58.723 130.662 59.0386 130.662 59.4136C130.662 59.6414 130.709 59.8621 130.801 60.0757C130.893 60.2893 131.062 60.5219 131.307 60.7735C131.441 60.9064 131.88 61.2552 132.625 61.8201C133.507 62.4893 134.113 63.085 134.441 63.6071C134.769 64.1292 134.934 64.6537 134.934 65.1806C134.934 65.94 134.652 66.5998 134.088 67.1599C133.528 67.72 132.846 68 132.042 68C131.423 68 130.861 67.8315 130.357 67.4945C129.853 67.1528 129.389 66.5832 128.964 65.7858Z" stroke="white" stroke-width="0.6" mask="url(#path-5-outside-1)"/>
<path d="M137.03 65.7858L137.897 65.2518C138.507 66.4052 139.212 66.9819 140.012 66.9819C140.354 66.9819 140.675 66.9012 140.975 66.7398C141.276 66.5737 141.505 66.353 141.662 66.0777C141.819 65.8024 141.898 65.5105 141.898 65.2019C141.898 64.8507 141.782 64.5066 141.551 64.1696C141.232 63.7044 140.649 63.1443 139.804 62.4893C138.953 61.8296 138.424 61.3525 138.216 61.0583C137.855 60.5646 137.675 60.0306 137.675 59.4563C137.675 59.0006 137.781 58.5853 137.994 58.2104C138.206 57.8354 138.505 57.5411 138.888 57.3275C139.277 57.1092 139.697 57 140.15 57C140.631 57 141.079 57.1234 141.495 57.3702C141.916 57.6123 142.36 58.0608 142.827 58.7159L141.995 59.3638C141.611 58.8416 141.283 58.4975 141.01 58.3314C140.742 58.1653 140.448 58.0822 140.129 58.0822C139.718 58.0822 139.381 58.2104 139.117 58.4667C138.858 58.723 138.729 59.0386 138.729 59.4136C138.729 59.6414 138.775 59.8621 138.867 60.0757C138.96 60.2893 139.129 60.5219 139.374 60.7735C139.508 60.9064 139.947 61.2552 140.691 61.8201C141.574 62.4893 142.18 63.085 142.508 63.6071C142.836 64.1292 143 64.6537 143 65.1806C143 65.94 142.718 66.5998 142.154 67.1599C141.595 67.72 140.913 68 140.109 68C139.489 68 138.928 67.8315 138.424 67.4945C137.92 67.1528 137.455 66.5832 137.03 65.7858Z" stroke="white" stroke-width="0.6" mask="url(#path-5-outside-1)"/>
</svg>
