<svg width="101" height="32" viewBox="0 0 101 32" fill="none" xmlns="http://www.w3.org/2000/svg">
<path d="M64 27.0988L66.0199 25.9169C67.4419 28.4699 69.0848 29.7464 70.9484 29.7464C71.7456 29.7464 72.4943 29.5678 73.1946 29.2106C73.8948 28.8428 74.428 28.3543 74.7943 27.745C75.1606 27.1356 75.3437 26.4895 75.3437 25.8066C75.3437 25.0291 75.0744 24.2675 74.5358 23.5215C73.7925 22.4919 72.4351 21.2522 70.4637 19.8024C68.4815 18.342 67.248 17.2862 66.7632 16.6348C65.9229 15.5422 65.5028 14.3602 65.5028 13.089C65.5028 12.0804 65.7506 11.1611 66.2461 10.3311C66.7417 9.50117 67.4365 8.84979 68.3307 8.37702C69.2356 7.89374 70.2159 7.6521 71.2716 7.6521C72.392 7.6521 73.437 7.92526 74.4065 8.47157C75.3868 9.00738 76.421 10.0002 77.5091 11.45L75.57 12.8841C74.6758 11.7285 73.911 10.9668 73.2754 10.5991C72.6505 10.2313 71.9665 10.0475 71.2231 10.0475C70.2644 10.0475 69.478 10.3311 68.8639 10.8985C68.2606 11.4658 67.959 12.1645 67.959 12.9944C67.959 13.4987 68.0667 13.9873 68.2822 14.46C68.4976 14.9328 68.8908 15.4476 69.4618 16.0044C69.7742 16.2986 70.7976 17.0708 72.532 18.321C74.5896 19.8024 76.0009 21.1209 76.7657 22.2766C77.5306 23.4322 77.913 24.5931 77.913 25.7593C77.913 27.4403 77.2559 28.9006 75.9416 30.1404C74.6381 31.3801 73.0491 31.9999 71.1747 31.9999C69.7311 31.9999 68.4222 31.627 67.248 30.881C66.0738 30.1246 64.9911 28.8639 64 27.0988Z" fill="white"/>
<path d="M84.8696 7.6521H87.2844V21.9895C87.2844 23.6902 87.3173 24.7505 87.383 25.1703C87.5034 26.1067 87.7827 26.8925 88.2208 27.5275C88.6588 28.1518 89.3323 28.6793 90.2413 29.1098C91.1503 29.5296 92.0647 29.7395 92.9846 29.7395C93.7841 29.7395 94.5507 29.5727 95.2844 29.239C96.0182 28.9053 96.6314 28.4425 97.1242 27.8505C97.6171 27.2584 97.9785 26.5427 98.2084 25.7031C98.3727 25.1003 98.4548 23.8625 98.4548 21.9895V7.6521H100.87V21.9895C100.87 24.11 100.656 25.8269 100.229 27.14C99.8128 28.4425 98.9696 29.5781 97.6992 30.5468C96.4398 31.5156 94.9121 31.9999 93.116 31.9999C91.1667 31.9999 89.4966 31.5425 88.1058 30.6275C86.7149 29.7126 85.7841 28.5017 85.3132 26.9947C85.0175 26.069 84.8696 24.4006 84.8696 21.9895V7.6521Z" fill="white"/>
<path fill-rule="evenodd" clip-rule="evenodd" d="M39.7676 17.2266L39.281 17.5623C39.0985 17.6742 39.0985 17.6742 38.8552 17.8421C38.3077 18.3458 36.3611 19.6328 35.692 20.3603C35.2662 20.808 34.6579 21.3116 34.1712 21.7034C32.833 22.9345 31.1905 25.061 30.5822 26.7957C29.8523 28.6424 30.0347 29.9854 30.0347 32H57.0435V24.949H43.0525C43.0525 24.8931 49.2572 20.864 50.9605 19.5769C51.8121 18.9613 52.4812 18.2898 53.3937 17.5064C54.7928 16.1633 56.2527 13.757 56.6785 11.9103C57.7735 7.32163 54.8536 2.7329 50.2913 0.998143C44.0258 -1.4641 36.8478 0.942183 31.738 4.80343L29.9131 6.31435C30.1564 6.87395 30.6431 7.37759 31.008 7.88123C31.4947 8.49679 31.738 8.88851 32.1638 9.44811L34.4754 12.5819L38.0036 10.5113C39.0985 9.89579 40.6801 9.28023 41.6534 8.66467L41.0451 6.48223L50.9605 6.81799C50.8388 7.32163 48.4664 11.2948 48.0406 12.0782L45.0599 17.2825C44.5124 16.4431 44.5124 15.3799 43.9649 14.5405C42.6875 15.0441 40.9842 16.4991 39.7676 17.2266Z" fill="white"/>
<path d="M22.9565 12.5374L21.1047 13.94C20.083 12.6267 18.8537 11.6339 17.4169 10.9615C15.9908 10.2786 14.421 9.93717 12.7075 9.93717C10.8344 9.93717 9.09959 10.3837 7.50317 11.2767C5.90675 12.1592 4.66687 13.3516 3.78352 14.854C2.91081 16.3459 2.47445 18.0268 2.47445 19.8969C2.47445 22.7231 3.45359 25.0817 5.41186 26.9728C7.38078 28.8639 9.86055 29.8094 12.8512 29.8094C16.1398 29.8094 18.891 28.5382 21.1047 25.9957L22.9565 27.3825C21.7858 28.8534 20.3224 29.9933 18.5664 30.8022C16.8209 31.6007 14.868 31.9999 12.7075 31.9999C8.59938 31.9999 5.35865 30.6499 2.98531 27.9498C0.995102 25.67 0 22.9174 0 19.6921C0 16.2986 1.20264 13.4462 3.60791 11.1349C6.02382 8.81302 9.04638 7.6521 12.6756 7.6521C14.868 7.6521 16.8476 8.08285 18.6143 8.94435C20.381 9.79534 21.8284 10.993 22.9565 12.5374Z" fill="white"/>
</svg>
